<?xml version="1.0" encoding="UTF-8"?>
<svg version="1.1" xmlns="http://www.w3.org/2000/svg" width="488" height="358">
<path d="M0 0 C161.04 0 322.08 0 488 0 C488 118.14 488 236.28 488 358 C326.96 358 165.92 358 0 358 C0 239.86 0 121.72 0 0 Z " fill="#FCFCFD" transform="translate(0,0)"/>
<path d="M0 0 C84.48 0 168.96 0 256 0 C256.33 10.23 256.66 20.46 257 31 C262.46707316 36.46707316 272.27714211 33.63224486 280 34 C280 112.54 280 191.08 280 272 C187.6 272 95.2 272 0 272 C0 266.39 0 260.78 0 255 C-1.98 255 -3.96 255 -6 255 C-4.92183836 258.9181085 -3.83649201 262.83419409 -2.75 266.75 C-2.44964844 267.84183594 -2.14929688 268.93367188 -1.83984375 270.05859375 C-0.02121602 276.59791473 1.98279997 282.99079772 4.35449219 289.35253906 C5.07085071 292.29058439 4.81090925 294.11546129 4 297 C3.01 297 2.02 297 1 297 C-5.435 278.19 -5.435 278.19 -12 259 C-14.97 259.66 -17.94 260.32 -21 261 C-20.85990213 256.9997778 -20.71188256 252.99988539 -20.5625 249 C-20.50352539 247.31197266 -20.50352539 247.31197266 -20.44335938 245.58984375 C-20.21827453 239.66838092 -19.85527916 233.86477138 -19 228 C-15.77985005 229.38362065 -13.98153187 230.89710887 -11.80078125 233.625 C-11.23166016 234.33140625 -10.66253906 235.0378125 -10.07617188 235.765625 C-9.49416016 236.50296875 -8.91214844 237.2403125 -8.3125 238 C-7.71888672 238.73734375 -7.12527344 239.4746875 -6.51367188 240.234375 C-2.16636588 245.66726824 -2.16636588 245.66726824 -1 248 C-0.505 125.24 -0.505 125.24 0 0 Z " fill="#F9B4BF" transform="translate(40,28)"/>
<path d="M0 0 C84.48 0 168.96 0 256 0 C256 2.64 256 5.28 256 8 C237.19 8 218.38 8 199 8 C199 10.64 199 13.28 199 16 C199.7741626 15.7690564 199.7741626 15.7690564 200.56396484 15.53344727 C203.70317582 14.84601732 206.76871085 14.66691478 209.9765625 14.46484375 C210.6556517 14.42177597 211.33474091 14.37870819 212.03440857 14.33433533 C214.23100854 14.19725226 216.42792869 14.06679399 218.625 13.9375 C219.3673288 13.89264465 220.10965759 13.84778931 220.8744812 13.80157471 C231.92516219 13.1388423 242.92736345 12.71968009 254 13 C254 14.65 254 16.3 254 18 C241.64022543 19.5476857 229.27986816 21.04660186 216.875 22.1875 C215.98280762 22.27112793 215.09061523 22.35475586 214.17138672 22.44091797 C209.42545626 22.86279862 204.764404 23.08392582 200 23 C200.33 24.2375 200.66 25.475 201 26.75 C201.79891159 29.74591845 202 31.80107719 202 35 C195.5005603 34.46864002 189.84808517 33.21593443 183.6875 31.125 C176.5097271 28.767867 169.37116703 26.67727154 162 25 C161.67 23.68 161.34 22.36 161 21 C169.25 17.04 177.5 13.08 186 9 C127.26 8.67 68.52 8.34 8 8 C8 92.48 8 176.96 8 264 C95.12 264 182.24 264 272 264 C272 188.1 272 112.2 272 34 C274.64 34 277.28 34 280 34 C280 112.54 280 191.08 280 272 C187.6 272 95.2 272 0 272 C0 266.39 0 260.78 0 255 C-1.98 255 -3.96 255 -6 255 C-4.92183836 258.9181085 -3.83649201 262.83419409 -2.75 266.75 C-2.44964844 267.84183594 -2.14929688 268.93367188 -1.83984375 270.05859375 C-0.02121602 276.59791473 1.98279997 282.99079772 4.35449219 289.35253906 C5.07085071 292.29058439 4.81090925 294.11546129 4 297 C3.01 297 2.02 297 1 297 C-5.435 278.19 -5.435 278.19 -12 259 C-14.97 259.66 -17.94 260.32 -21 261 C-20.85990213 256.9997778 -20.71188256 252.99988539 -20.5625 249 C-20.50352539 247.31197266 -20.50352539 247.31197266 -20.44335938 245.58984375 C-20.21827453 239.66838092 -19.85527916 233.86477138 -19 228 C-15.77985005 229.38362065 -13.98153187 230.89710887 -11.80078125 233.625 C-11.23166016 234.33140625 -10.66253906 235.0378125 -10.07617188 235.765625 C-9.49416016 236.50296875 -8.91214844 237.2403125 -8.3125 238 C-7.71888672 238.73734375 -7.12527344 239.4746875 -6.51367188 240.234375 C-2.16636588 245.66726824 -2.16636588 245.66726824 -1 248 C-0.505 125.24 -0.505 125.24 0 0 Z " fill="#790371" transform="translate(40,28)"/>
<path d="M0 0 C0.33 0 0.66 0 1 0 C1.14906961 4.85622918 1.25754856 9.71110811 1.32958984 14.5690918 C1.35963934 16.21906755 1.40049264 17.8688852 1.45263672 19.51831055 C1.52598716 21.89932343 1.55957104 24.2782141 1.5859375 26.66015625 C1.61690521 27.38960953 1.64787292 28.11906281 1.67977905 28.87062073 C1.68301239 33.8663007 0.39383401 36.84013324 -2.95920753 40.53469181 C-7.10894317 43.51424104 -11.96693414 42.85441553 -16.88037109 42.70288086 C-18.07118286 42.69414948 -19.26199463 42.68541809 -20.4888916 42.67642212 C-23.74157005 42.64570091 -26.99183416 42.58380133 -30.2437129 42.50782847 C-33.6466789 42.43576177 -37.05001976 42.40382336 -40.45352173 42.36756897 C-46.89258312 42.29291083 -53.33050297 42.18233786 -59.76879084 42.05875069 C-67.10096891 41.91976169 -74.43351773 41.82097413 -81.76637149 41.72550762 C-96.84508487 41.52829961 -111.92259393 41.28078585 -127 41 C-127.66 39.35 -128.32 37.7 -129 36 C-103.92 36 -78.84 36 -53 36 C-53 35.34 -53 34.68 -53 34 C-53.804375 33.731875 -54.60875 33.46375 -55.4375 33.1875 C-56.283125 32.795625 -57.12875 32.40375 -58 32 C-58.495 30.515 -58.495 30.515 -59 29 C-57.33388095 28.957279 -55.66617115 28.95936168 -54 29 C-53.67 29.33 -53.34 29.66 -53 30 C-51.33382885 30.04063832 -49.66611905 30.042721 -48 30 C-48 29.01 -48 28.02 -48 27 C-49.0725 27.2475 -50.145 27.495 -51.25 27.75 C-55 28 -55 28 -57.4375 26.75 C-59.88900418 22.43535265 -59.79110195 17.84639035 -59 13 C-57.69140625 10.671875 -57.69140625 10.671875 -56 9 C-52.5 8.75 -52.5 8.75 -49 9 C-48.01 9 -47.02 9 -46 9 C-44.33333333 9 -42.66666667 9 -41 9 C-40.94197302 12.43742918 -40.90639514 15.87473253 -40.875 19.3125 C-40.85824219 20.28896484 -40.84148437 21.26542969 -40.82421875 22.27148438 C-40.81777344 23.20927734 -40.81132812 24.14707031 -40.8046875 25.11328125 C-40.79421387 25.97735596 -40.78374023 26.84143066 -40.77294922 27.73168945 C-41 30 -41 30 -43 33 C-43.66 33 -44.32 33 -45 33 C-45 33.66 -45 34.32 -45 35 C-39.05520371 35.07401579 -33.11067407 35.12853813 -27.16552734 35.16479492 C-25.14204234 35.17990526 -23.1185902 35.20039437 -21.09521484 35.22631836 C-18.19099835 35.26260328 -15.28721385 35.27970355 -12.3828125 35.29296875 C-11.47443634 35.30845261 -10.56606018 35.32393646 -9.63015747 35.33988953 C-8.36907669 35.34022942 -8.36907669 35.34022942 -7.08251953 35.34057617 C-6.34083527 35.34723801 -5.599151 35.35389984 -4.83499146 35.36076355 C-4.22944427 35.24171158 -3.62389709 35.12265961 -3 35 C-0.62931088 31.44396632 -0.65534892 28.82006655 -0.5859375 24.70703125 C-0.56657135 24.00100266 -0.5472052 23.29497406 -0.5272522 22.56755066 C-0.46754776 20.31598939 -0.4211086 18.06437672 -0.375 15.8125 C-0.33681171 14.28448311 -0.29775948 12.75648755 -0.2578125 11.22851562 C-0.16185404 7.48585065 -0.07778989 3.7430849 0 0 Z " fill="#DDDDDD" transform="translate(186,311)"/>
<path d="M0 0 C0 3.96 0 7.92 0 12 C1.32 11.67 2.64 11.34 4 11 C6.32234947 10.78421902 8.64882368 10.61147415 10.9765625 10.46484375 C11.9951963 10.40024208 11.9951963 10.40024208 13.03440857 10.33433533 C15.23100854 10.19725226 17.42792869 10.06679399 19.625 9.9375 C20.3673288 9.89264465 21.10965759 9.84778931 21.8744812 9.80157471 C32.92516219 9.1388423 43.92736345 8.71968009 55 9 C55 10.65 55 12.3 55 14 C42.64022543 15.5476857 30.27986816 17.04660186 17.875 18.1875 C16.98280762 18.27112793 16.09061523 18.35475586 15.17138672 18.44091797 C10.42545626 18.86279862 5.764404 19.08392582 1 19 C1.495 20.85625 1.495 20.85625 2 22.75 C2.79891159 25.74591845 3 27.80107719 3 31 C-3.4994397 30.46864002 -9.15191483 29.21593443 -15.3125 27.125 C-22.4902729 24.767867 -29.62883297 22.67727154 -37 21 C-37.33 19.68 -37.66 18.36 -38 17 C-33.07405584 14.57141264 -28.1444196 12.15055339 -23.21118164 9.73681641 C-21.53305676 8.91439398 -19.85596534 8.08985935 -18.17993164 7.26318359 C-15.77237421 6.07614877 -13.36121744 4.89672881 -10.94921875 3.71875 C-10.19912033 3.34689575 -9.44902191 2.9750415 -8.67619324 2.59191895 C-3.34161512 0 -3.34161512 0 0 0 Z " fill="#6A51BF" transform="translate(239,32)"/>
<path d="M0 0 C0.66 0 1.32 0 2 0 C2.02920143 4.18748519 2.04686646 8.37494391 2.0625 12.5625 C2.07087891 13.74392578 2.07925781 14.92535156 2.08789062 16.14257812 C2.12104942 27.98026914 2.12104942 27.98026914 1 33 C-0.875 34.375 -0.875 34.375 -3 35 C-4.485 35.495 -4.485 35.495 -6 36 C-7.57691015 36.09958557 -9.15763824 36.1435111 -10.73765564 36.15390015 C-11.71204086 36.16250061 -12.68642609 36.17110107 -13.69033813 36.17996216 C-14.7579538 36.18422211 -15.82556946 36.18848206 -16.92553711 36.19287109 C-18.61367775 36.20513733 -18.61367775 36.20513733 -20.33592224 36.21765137 C-24.06639063 36.24249958 -27.79682108 36.259017 -31.52734375 36.2734375 C-32.79937716 36.27876118 -34.07141056 36.28408485 -35.38199043 36.28956985 C-40.72555852 36.31079422 -46.0691133 36.32992561 -51.41271114 36.34119225 C-59.06943485 36.35744332 -66.72565213 36.39066067 -74.38218492 36.44759309 C-80.41620983 36.49093218 -86.45000372 36.50693376 -92.4841938 36.51332474 C-95.05151545 36.52005842 -97.6188291 36.53533484 -100.18604851 36.55921555 C-103.77278479 36.59068536 -107.3582314 36.59093092 -110.94506836 36.58349609 C-112.01065979 36.59990143 -113.07625122 36.61630676 -114.1741333 36.63320923 C-121.37795961 36.57188648 -121.37795961 36.57188648 -124.69093323 33.52603149 C-126 31 -126 31 -126 30 C-125.36185899 29.99576806 -124.72371798 29.99153612 -124.06623936 29.98717594 C-108.56046096 29.88400684 -93.05473184 29.77539001 -77.54903507 29.66066074 C-70.05069115 29.60531151 -62.55234247 29.55182679 -55.05395508 29.50268555 C-48.52066512 29.45986447 -41.98741045 29.41359182 -35.45417494 29.36312145 C-31.99280267 29.3365037 -28.53143748 29.31165031 -25.07002449 29.29092598 C-21.21208148 29.26776301 -17.35422171 29.23689622 -13.49633789 29.20532227 C-12.34044159 29.1995668 -11.18454529 29.19381134 -9.99362183 29.18788147 C-8.94889206 29.17809265 -7.90416229 29.16830383 -6.82777405 29.15821838 C-5.45752878 29.14853956 -5.45752878 29.14853956 -4.05960178 29.1386652 C-2.00810602 29.2274428 -2.00810602 29.2274428 -1 28 C-0.8415735 25.9291528 -0.74875578 23.85321971 -0.68359375 21.77734375 C-0.64169922 20.51728516 -0.59980469 19.25722656 -0.55664062 17.95898438 C-0.51682404 16.61849264 -0.47711186 15.2779978 -0.4375 13.9375 C-0.39431958 12.59308477 -0.35070544 11.2486834 -0.30664062 9.90429688 C-0.20014642 6.6029766 -0.0981354 3.30157764 0 0 Z " fill="#E8E7E9" transform="translate(457,206)"/>
<path d="M0 0 C0.33 0 0.66 0 1 0 C1.04939662 3.95096978 1.08571755 7.9018203 1.10986328 11.85302734 C1.12488107 13.8591136 1.15028981 15.86511324 1.17578125 17.87109375 C1.18222656 19.12792969 1.18867188 20.38476562 1.1953125 21.6796875 C1.20578613 22.84226074 1.21625977 24.00483398 1.22705078 25.20263672 C1 28 1 28 -1 30 C-0.67 20.1 -0.34 10.2 0 0 Z M-2 30 C-1.67 30.66 -1.34 31.32 -1 32 C-4.625 36.875 -4.625 36.875 -8 38 C-9.67483625 38.08999029 -11.35306795 38.12196425 -13.03031921 38.12025452 C-14.06938416 38.12162918 -15.1084491 38.12300385 -16.17900085 38.12442017 C-17.31835587 38.12082489 -18.45771088 38.11722961 -19.6315918 38.11352539 C-21.43178268 38.11374443 -21.43178268 38.11374443 -23.26834106 38.1139679 C-26.55940532 38.1133902 -29.850407 38.10837154 -33.14146018 38.10139394 C-36.58078054 38.0951468 -40.02010172 38.09455552 -43.45942688 38.09336853 C-49.97233141 38.09025924 -56.48521917 38.08205125 -62.99811631 38.07201904 C-70.4127946 38.06084545 -77.82747368 38.05534431 -85.24215829 38.05032361 C-100.49478191 38.03986831 -115.74738879 38.02227662 -131 38 C-131 36.02 -131 34.04 -131 32 C-130.34731958 31.99576806 -129.69463917 31.99153612 -129.02218056 31.98717594 C-113.15720901 31.88397058 -97.29228526 31.77534813 -81.42739296 31.66066074 C-73.75532186 31.6053306 -66.08324611 31.55184895 -58.41113281 31.50268555 C-51.72584696 31.45984115 -45.04059531 31.41356252 -38.3553623 31.36312145 C-34.81403322 31.33652256 -31.27271093 31.31166955 -27.73134232 31.29092598 C-23.78260015 31.26773198 -19.83393861 31.23687233 -15.88525391 31.20532227 C-14.70490067 31.1995668 -13.52454742 31.19381134 -12.3084259 31.18788147 C-11.23707901 31.17809265 -10.16573212 31.16830383 -9.06192017 31.15821838 C-8.12722208 31.15176583 -7.19252399 31.14531328 -6.22950172 31.1386652 C-3.96103743 31.14336412 -3.96103743 31.14336412 -2 30 Z " fill="#E8E7E8" transform="translate(451,30)"/>
<path d="M0 0 C3.16950847 1.3684567 4.95510534 2.82374614 7.09375 5.51953125 C7.64933594 6.21240234 8.20492188 6.90527344 8.77734375 7.61914062 C9.34582031 8.34294922 9.91429687 9.06675781 10.5 9.8125 C11.06847656 10.52470703 11.63695312 11.23691406 12.22265625 11.97070312 C13.32536713 13.35356909 14.42322248 14.74032418 15.515625 16.13134766 C16.77950133 17.72241828 18.08844995 19.27751512 19.40625 20.82421875 C21 23 21 23 21 26 C18.29120665 27.35439668 15.99066732 27.06501451 13 27 C14.07816164 30.9181085 15.16350799 34.83419409 16.25 38.75 C16.55035156 39.84183594 16.85070312 40.93367188 17.16015625 42.05859375 C18.97878398 48.59791473 20.98279997 54.99079772 23.35449219 61.35253906 C24.07085071 64.29058439 23.81090925 66.11546129 23 69 C22.01 69 21.02 69 20 69 C15.71 56.46 11.42 43.92 7 31 C4.03 31.66 1.06 32.32 -2 33 C-1.85990213 28.9997778 -1.71188256 24.99988539 -1.5625 21 C-1.52318359 19.87464844 -1.48386719 18.74929688 -1.44335938 17.58984375 C-1.21827453 11.66838092 -0.85527916 5.86477138 0 0 Z " fill="#6953C1" transform="translate(21,256)"/>
<path d="M0 0 C8.4462681 2.04161327 16.80695561 4.07391272 25 7 C24.67 7.5775 24.34 8.155 24 8.75 C22.72924102 11.19883862 22.72924102 11.19883862 23 15 C25.08626248 16.93595538 27.09143749 18.57966514 29.375 20.25 C30.65658706 21.21960673 31.93783448 22.18966255 33.21875 23.16015625 C33.85683594 23.63727051 34.49492187 24.11438477 35.15234375 24.60595703 C37.77022188 26.58112671 40.32173137 28.62947744 42.875 30.6875 C43.67679687 31.33074219 44.47859375 31.97398437 45.3046875 32.63671875 C45.86414063 33.08660156 46.42359375 33.53648437 47 34 C46.505 34.99 46.505 34.99 46 36 C42.6324362 35.36977359 40.39698048 34.10981298 37.59375 32.1640625 C36.76746094 31.59429687 35.94117188 31.02453125 35.08984375 30.4375 C34.23519531 29.839375 33.38054687 29.24125 32.5 28.625 C31.64535156 28.03460938 30.79070312 27.44421875 29.91015625 26.8359375 C23.52086568 22.41028225 23.52086568 22.41028225 20.84960938 20.30615234 C19.10509983 18.80771865 19.10509983 18.80771865 17 19 C16.34 20.32 15.68 21.64 15 23 C11.5673983 21.59270677 10.11707281 20.12506151 8.203125 16.97265625 C7.71972656 16.18052734 7.23632812 15.38839844 6.73828125 14.57226562 C6.24714844 13.74404297 5.75601562 12.91582031 5.25 12.0625 C4.74339844 11.23814453 4.23679687 10.41378906 3.71484375 9.56445312 C0 3.4014172 0 3.4014172 0 0 Z " fill="#6B55C1" transform="translate(323,154)"/>
<path d="M0 0 C1.977912 0.09418629 3.95734674 0.1875 5.9375 0.1875 C7.60416667 0.1875 9.27083333 0.1875 10.9375 0.1875 C11.02453823 3.62484063 11.07790272 7.06189837 11.125 10.5 C11.15013672 11.47646484 11.17527344 12.45292969 11.20117188 13.45898438 C11.21083984 14.39677734 11.22050781 15.33457031 11.23046875 16.30078125 C11.2461792 17.16485596 11.26188965 18.02893066 11.27807617 18.91918945 C10.86412107 21.67621948 10.1024876 22.49360528 7.9375 24.1875 C4.49251512 25.90999244 0.70437274 25.69599437 -3.0625 25.1875 C-5.625 23.25 -5.625 23.25 -7.0625 21.1875 C-7.0625 20.8575 -7.0625 20.5275 -7.0625 20.1875 C-3.1025 20.1875 0.8575 20.1875 4.9375 20.1875 C4.9375 19.1975 4.9375 18.2075 4.9375 17.1875 C4.6075 17.5175 4.2775 17.8475 3.9375 18.1875 C0.93596457 18.53193849 -1.16277436 18.76070158 -4.0625 18.1875 C-6.82138553 15.56319425 -7.98322088 13.74137084 -8.1796875 9.890625 C-7.74497028 4.10699588 -7.74497028 4.10699588 -5.7578125 1.4296875 C-3.65906528 -0.10810424 -2.5710835 -0.12975562 0 0 Z " fill="#6D58C3" transform="translate(429.0625,34.8125)"/>
<path d="M0 0 C1.98 0 3.96 0 6 0 C6.33 2.31 6.66 4.62 7 7 C8.051875 6.731875 9.10375 6.46375 10.1875 6.1875 C14 6 14 6 16.9375 7.8125 C19.79847831 12.23401193 20.03259645 15.87059813 19 21 C16.9375 24.1875 16.9375 24.1875 14 26 C10.25 25.75 10.25 25.75 7 25 C6.67 25.33 6.34 25.66 6 26 C4.02 26 2.04 26 0 26 C0 17.42 0 8.84 0 0 Z " fill="#745FC6" transform="translate(338,203)"/>
<path d="M0 0 C1.7325 0.12375 1.7325 0.12375 3.5 0.25 C4.49 0.25 5.48 0.25 6.5 0.25 C8.16666667 0.25 9.83333333 0.25 11.5 0.25 C11.61632513 3.66637953 11.68728897 7.08224897 11.75 10.5 C11.80027344 11.95212891 11.80027344 11.95212891 11.8515625 13.43359375 C11.94974274 20.55166093 11.94974274 20.55166093 9.796875 23.89453125 C7.13011279 25.46828378 5.58242697 25.75798232 2.5 25.6875 C1.654375 25.68621094 0.80875 25.68492187 -0.0625 25.68359375 C-2.94876701 25.17017125 -4.38365352 24.25367063 -6.5 22.25 C-6.5 21.59 -6.5 20.93 -6.5 20.25 C-4.83388095 20.207279 -3.16617115 20.20936168 -1.5 20.25 C-1.17 20.58 -0.84 20.91 -0.5 21.25 C1.16617115 21.29063832 2.83388095 21.292721 4.5 21.25 C4.5 20.26 4.5 19.27 4.5 18.25 C3.4275 18.4975 2.355 18.745 1.25 19 C-2.5 19.25 -2.5 19.25 -4.9375 18 C-7.38900418 13.68535265 -7.29110195 9.09639035 -6.5 4.25 C-4.51403906 0.71676801 -4.19411226 0.29957945 0 0 Z " fill="#6D58C3" transform="translate(133.5,319.75)"/>
<path d="M0 0 C42.24 0 84.48 0 128 0 C124 4 124 4 121.57125473 4.47657394 C120.66052326 4.46551243 119.74979179 4.45445091 118.8114624 4.4430542 C117.76260864 4.4401387 116.71375488 4.43722321 115.63311768 4.43421936 C114.4880072 4.41048752 113.34289673 4.38675568 112.16308594 4.36230469 C110.34804565 4.34855049 110.34804565 4.34855049 108.49633789 4.33451843 C105.18211559 4.30546357 101.86905133 4.2585307 98.55521679 4.20364666 C95.09068923 4.15049253 91.62596374 4.12018945 88.16119385 4.08746338 C81.60202941 4.0220364 75.04330183 3.93605674 68.48448205 3.84269357 C61.01674159 3.73739284 53.5488034 3.65500224 46.08076048 3.5745368 C30.7201444 3.40851836 15.36003082 3.21372642 0 3 C0 2.01 0 1.02 0 0 Z " fill="#D6D6D6" transform="translate(320,62)"/>
<path d="M0 0 C40.26 0 80.52 0 122 0 C121.34 0.99 120.68 1.98 120 3 C117.89543724 3.36914349 117.89543724 3.36914349 115.24179077 3.36076355 C114.23775711 3.36488754 113.23372345 3.36901154 112.19926453 3.3732605 C111.09371719 3.36247467 109.98816986 3.35168884 108.84912109 3.34057617 C107.68815414 3.34101425 106.52718719 3.34145233 105.33103943 3.34190369 C101.47833672 3.339807 97.62606456 3.31643395 93.7734375 3.29296875 C91.10827903 3.28737592 88.44314469 3.28295685 85.77798462 3.28010559 C79.47039275 3.27077226 73.16295641 3.24614121 66.85543311 3.21605712 C59.67537601 3.18255305 52.49531158 3.16603718 45.3151958 3.15097082 C30.54338423 3.11959267 15.77169482 3.06680726 1 3 C0.67 2.01 0.34 1.02 0 0 Z " fill="#D4D4D4" transform="translate(332,237)"/>
<path d="M0 0 C1.65 0 3.3 0 5 0 C5 8.25 5 16.5 5 25 C2.66666667 25 0.33333333 25 -2 25 C-3.11375 25.2475 -4.2275 25.495 -5.375 25.75 C-9 26 -9 26 -11.375 24.25 C-14.26359138 20.25041194 -14.33261716 16.82294887 -14 12 C-12.9375 9.125 -12.9375 9.125 -11 7 C-7.5 6.0625 -7.5 6.0625 -4 6 C-3.01 6.66 -2.02 7.32 -1 8 C-0.67 5.36 -0.34 2.72 0 0 Z " fill="#6D57C2" transform="translate(407,203)"/>
<path d="M0 0 C1.65 0 3.3 0 5 0 C5 8.58 5 17.16 5 26 C2.33333333 26 -0.33333333 26 -3 26 C-3.969375 26.0825 -4.93875 26.165 -5.9375 26.25 C-9 26 -9 26 -11.375 24.6875 C-13.94266885 20.44097075 -13.78933604 15.83557217 -13 11 C-11.73046875 8.67578125 -11.73046875 8.67578125 -10 7 C-7.20320268 6.40690485 -4.89282278 6.76670784 -2 7 C-1.67 7.33 -1.34 7.66 -1 8 C-0.67 5.36 -0.34 2.72 0 0 Z " fill="#6B55C2" transform="translate(383,28)"/>
<path d="M0 0 C1.65 0 3.3 0 5 0 C5 8.58 5 17.16 5 26 C2.33333333 26 -0.33333333 26 -3 26 C-3.969375 26.103125 -4.93875 26.20625 -5.9375 26.3125 C-9 26 -9 26 -11.375 24.125 C-13.61447636 19.81831469 -13.86119259 15.77147244 -13 11 C-11.73046875 8.7109375 -11.73046875 8.7109375 -10 7 C-7.20320268 6.40690485 -4.89282278 6.76670784 -2 7 C-1.67 7.33 -1.34 7.66 -1 8 C-0.67 5.36 -0.34 2.72 0 0 Z " fill="#6D57C2" transform="translate(361,28)"/>
<path d="M0 0 C18.81 0 37.62 0 57 0 C57 1.65 57 3.3 57 5 C53.86797484 6.56601258 50.53550486 6.05455075 47.1015625 6 C37.16268164 5.92077277 27.2933534 6.41309188 17.375 7 C15.67450553 7.09681837 13.97398467 7.19317434 12.2734375 7.2890625 C8.18196969 7.52074625 4.09090351 7.75856542 0 8 C0 5.36 0 2.72 0 0 Z " fill="#FAB4C1" transform="translate(239,36)"/>
<path d="M0 0 C2.33333333 0 4.66666667 0 7 0 C8.670625 -0.12375 8.670625 -0.12375 10.375 -0.25 C14 0 14 0 16.4375 1.375 C18.87365543 5.46774112 18.73411174 9.36311053 18 14 C16.375 17.125 16.375 17.125 14 19 C10.81894588 19.38172649 8.87470493 19.43735246 6 18 C5.67 20.31 5.34 22.62 5 25 C3.35 25 1.7 25 0 25 C0 16.75 0 8.5 0 0 Z " fill="#6C56C2" transform="translate(307,35)"/>
<path d="M0 0 C2.33333333 0 4.66666667 0 7 0 C7.969375 -0.04125 8.93875 -0.0825 9.9375 -0.125 C13 0 13 0 16 2 C16.66 1.34 17.32 0.68 18 0 C21.4375 -0.375 21.4375 -0.375 25 0 C27.75554256 2.47873006 27.99520852 3.93994682 28.29296875 7.671875 C28.27316751 9.03156035 28.23759202 10.3910934 28.1875 11.75 C28.16719727 12.79607422 28.16719727 12.79607422 28.14648438 13.86328125 C28.1112945 15.57585541 28.05749155 17.28802941 28 19 C26.02 19 24.04 19 22 19 C21.67 14.38 21.34 9.76 21 5 C19.68 5.33 18.36 5.66 17 6 C16.67 10.29 16.34 14.58 16 19 C14.35 19 12.7 19 11 19 C10.67 14.38 10.34 9.76 10 5 C8.68 5 7.36 5 6 5 C5.67 9.62 5.34 14.24 5 19 C3.35 19 1.7 19 0 19 C0 12.73 0 6.46 0 0 Z " fill="#6A54C2" transform="translate(63,320)"/>
<path d="M0 0 C2.75329021 1.79562405 4.52627461 3.05254922 6 6 C6.37712577 10.99691647 6.09290612 13.99067725 3 18 C-0.75047482 20.50031654 -2.55856266 20.53603554 -7 20 C-9.63016161 17.8272578 -11.47336894 16.05326212 -13 13 C-13.39447548 8.81855989 -13.45035186 6.69053952 -11.125 3.125 C-7.54668265 -0.45331735 -4.99886778 -0.42363286 0 0 Z " fill="#705BC4" transform="translate(372,209)"/>
<path d="M0 0 C1.15628906 -0.04253906 1.15628906 -0.04253906 2.3359375 -0.0859375 C5.62363124 0.57608957 6.703195 1.63577568 8.625 4.375 C8.9161521 7.11182971 9.00822418 9.41440039 8.875 12.125 C8.85695313 12.82238281 8.83890625 13.51976562 8.8203125 14.23828125 C8.77338554 15.95111539 8.70164605 17.66323824 8.625 19.375 C6.18631832 19.4829859 3.75240867 19.56226589 1.3125 19.625 C0.62220703 19.65851563 -0.06808594 19.69203125 -0.77929688 19.7265625 C-5.89139943 19.82534709 -5.89139943 19.82534709 -8.36328125 17.5234375 C-9.375 15.375 -9.375 15.375 -9.25 12.75 C-8.375 10.375 -8.375 10.375 -5.375 8.375 C-3.33203125 8.1796875 -3.33203125 8.1796875 -1.1875 8.25 C0.6996875 8.311875 0.6996875 8.311875 2.625 8.375 C2.625 7.055 2.625 5.735 2.625 4.375 C1.738125 4.705 0.85125 5.035 -0.0625 5.375 C-3.08423347 6.28722143 -5.25873706 6.55830958 -8.375 6.375 C-6.31173982 1.95372819 -5.03713906 0.08367341 0 0 Z " fill="#725DC5" transform="translate(102.375,319.625)"/>
<path d="M0 0 C0.77085937 -0.03738281 1.54171875 -0.07476562 2.3359375 -0.11328125 C5.64158642 0.50159201 6.70219311 1.56749741 8.625 4.3125 C8.9161521 7.04932971 9.00822418 9.35190039 8.875 12.0625 C8.85695313 12.75988281 8.83890625 13.45726562 8.8203125 14.17578125 C8.77338554 15.88861539 8.70164605 17.60073824 8.625 19.3125 C3.17565233 19.3125 -1.99440472 19.30890653 -7.375 18.3125 C-8.76931504 15.52386993 -8.63160094 13.39171132 -8.375 10.3125 C-5.28611478 8.25324319 -4.66564073 8.0734626 -1.1875 8.1875 C0.6996875 8.249375 0.6996875 8.249375 2.625 8.3125 C2.295 6.9925 1.965 5.6725 1.625 4.3125 C-1.13141416 4.81006092 -1.13141416 4.81006092 -3.375 6.3125 C-5.04117115 6.35313832 -6.70888095 6.355221 -8.375 6.3125 C-6.53170435 1.17760497 -5.42829302 0.17132486 0 0 Z " fill="#725DC5" transform="translate(336.375,34.6875)"/>
<path d="M0 0 C0.66 0 1.32 0 2 0 C2.66 1.65 3.32 3.3 4 5 C43.6 5 83.2 5 124 5 C124 5.66 124 6.32 124 7 C108.42305624 7.07006979 92.84614104 7.12297818 77.2690773 7.15543652 C70.03642764 7.17090783 62.80387588 7.1920023 55.57128906 7.22631836 C49.26762825 7.25621275 42.96403833 7.27557308 36.6603086 7.28226548 C33.32221674 7.28617777 29.9844883 7.29694767 26.64643097 7.31719017 C22.92073923 7.33888976 19.19547107 7.34196999 15.46972656 7.34057617 C13.80816528 7.35675491 13.80816528 7.35675491 12.11303711 7.3732605 C10.59024139 7.36707451 10.59024139 7.36707451 9.03668213 7.36076355 C7.71483099 7.36491162 7.71483099 7.36491162 6.36627579 7.36914349 C3.44030768 6.91268694 2.06338274 6.11510778 0 4 C0 2.68 0 1.36 0 0 Z " fill="#EFEFEF" transform="translate(55,347)"/>
<path d="M0 0 C4.75429353 0.91749524 6.33967169 2.07164385 9.5625 5.6875 C9.5625 7.6675 9.5625 9.6475 9.5625 11.6875 C5.2725 11.6875 0.9825 11.6875 -3.4375 11.6875 C-2.7775 13.0075 -2.1175 14.3275 -1.4375 15.6875 C1.8625 15.3575 5.1625 15.0275 8.5625 14.6875 C7.5625 18.6875 7.5625 18.6875 5.875 19.9375 C2.86268012 20.91446861 0.71689358 21.07375228 -2.4375 20.6875 C-5.77511045 18.53659549 -7.17220933 17.48337201 -8.4375 13.6875 C-8.91190055 9.49696183 -8.8499776 6.67439524 -6.375 3.25 C-3.4375 0.6875 -3.4375 0.6875 0 0 Z " fill="#6C57C2" transform="translate(423.4375,208.3125)"/>
<path d="M0 0 C2.33333333 0 4.66666667 0 7 0 C9.0092836 -0.12757356 11.01855693 -0.2554543 13.02734375 -0.390625 C15 0 15 0 16.7421875 1.53125 C18.4703136 4.92309998 18.32419491 8.04171237 18.1875 11.75 C18.16719727 12.79607422 18.16719727 12.79607422 18.14648438 13.86328125 C18.1112945 15.57585541 18.05749155 17.28802941 18 19 C16.02 19 14.04 19 12 19 C11.67 14.38 11.34 9.76 11 5 C9.35 5.33 7.7 5.66 6 6 C5.67 10.29 5.34 14.58 5 19 C3.35 19 1.7 19 0 19 C0 12.73 0 6.46 0 0 Z " fill="#7763C7" transform="translate(401,35)"/>
<path d="M0 0 C2.33333333 0 4.66666667 0 7 0 C8.134375 -0.061875 9.26875 -0.12375 10.4375 -0.1875 C14 0 14 0 15.7109375 1 C17.75832353 4.17655045 17.311701 7.54108613 17.1875 11.1875 C17.16719727 12.31188477 17.16719727 12.31188477 17.14648438 13.45898438 C17.11118539 15.30629767 17.05737917 17.15324066 17 19 C15.35 19 13.7 19 12 19 C11.67 14.38 11.34 9.76 11 5 C9.35 5.33 7.7 5.66 6 6 C5.67 10.29 5.34 14.58 5 19 C3.35 19 1.7 19 0 19 C0 12.73 0 6.46 0 0 Z " fill="#6A54C1" transform="translate(158,320)"/>
<path d="M0 0 C1.65 0 3.3 0 5 0 C5.11632513 3.41637953 5.18728897 6.83224897 5.25 10.25 C5.30027344 11.70212891 5.30027344 11.70212891 5.3515625 13.18359375 C5.44974274 20.30166093 5.44974274 20.30166093 3.296875 23.64453125 C0.63011279 25.21828378 -0.91757303 25.50798232 -4 25.4375 C-4.845625 25.43621094 -5.69125 25.43492187 -6.5625 25.43359375 C-9.44876701 24.92017125 -10.88365352 24.00367063 -13 22 C-13 21.34 -13 20.68 -13 20 C-11.33388095 19.957279 -9.66617115 19.95936168 -8 20 C-7.67 20.33 -7.34 20.66 -7 21 C-5.33382885 21.04063832 -3.66611905 21.042721 -2 21 C-1.34 19.35 -0.68 17.7 0 16 C-0.66 16 -1.32 16 -2 16 C-1.50130596 10.63108121 -0.97772468 5.30764827 0 0 Z " fill="#6952C1" transform="translate(140,320)"/>
<path d="M0 0 C0.99 0 1.98 0 3 0 C3 0.99 3 1.98 3 3 C7.11378875 3.86102555 9.9311118 3.85162776 14 3 C17.00190652 2.90872582 19.99760369 2.94112948 23 3 C22.814375 3.763125 22.62875 4.52625 22.4375 5.3125 C21.77180827 8.08967375 21.77180827 8.08967375 23 11 C22.34 11 21.68 11 21 11 C20.67 10.34 20.34 9.68 20 9 C19.67 9.66 19.34 10.32 19 11 C18.34 11 17.68 11 17 11 C16.67 10.34 16.34 9.68 16 9 C15.34 9.66 14.68 10.32 14 11 C11.66055264 10.71269945 9.3260857 10.38063221 7 10 C6.67 10.33 6.34 10.66 6 11 C4.35 11 2.7 11 1 11 C0.67 7.37 0.34 3.74 0 0 Z " fill="#2E2224" transform="translate(96,143)"/>
<path d="M0 0 C2.64 0 5.28 0 8 0 C8 0.33 8 0.66 8 1 C28.295 1.495 28.295 1.495 49 2 C49 2.33 49 2.66 49 3 C7.75 3 -33.5 3 -76 3 C-76 2.67 -76 2.34 -76 2 C-50.92 2 -25.84 2 0 2 C0 1.34 0 0.68 0 0 Z " fill="#DCDAE0" transform="translate(133,345)"/>
<path d="M0 0 C0.56137161 0.16238096 1.12274323 0.32476192 1.7011261 0.49206352 C4.13783298 1.03045421 6.28786752 1.12585314 8.78198242 1.12698364 C9.740914 1.12980347 10.69984558 1.13262329 11.68783569 1.13552856 C12.7331546 1.13350433 13.77847351 1.1314801 14.85546875 1.12939453 C16.51456772 1.13202301 16.51456772 1.13202301 18.20718384 1.13470459 C21.86730513 1.13910975 25.5273782 1.13618977 29.1875 1.1328125 C31.72810882 1.13348592 34.26871757 1.13445627 36.80932617 1.13571167 C42.13558627 1.13718683 47.46182904 1.13513515 52.78808594 1.13037109 C58.94335256 1.12492906 65.09858607 1.12669194 71.25385189 1.1321975 C77.17840284 1.13728433 83.10294351 1.13674329 89.02749634 1.13381577 C91.54733281 1.13314785 94.06717013 1.13397021 96.58700562 1.13629532 C100.10620373 1.13882979 103.6253379 1.13496992 107.14453125 1.12939453 C108.18985016 1.13141876 109.23516907 1.13344299 110.31216431 1.13552856 C111.27109589 1.13270874 112.23002747 1.12988892 113.21801758 1.12698364 C114.04981033 1.12660662 114.88160309 1.12622959 115.73860168 1.12584114 C117.95103921 1.00272455 119.87618021 0.61433085 122 0 C121.34 0.99 120.68 1.98 120 3 C117.89543724 3.36914349 117.89543724 3.36914349 115.24179077 3.36076355 C114.23775711 3.36488754 113.23372345 3.36901154 112.19926453 3.3732605 C111.09371719 3.36247467 109.98816986 3.35168884 108.84912109 3.34057617 C107.68815414 3.34101425 106.52718719 3.34145233 105.33103943 3.34190369 C101.47833672 3.339807 97.62606456 3.31643395 93.7734375 3.29296875 C91.10827903 3.28737592 88.44314469 3.28295685 85.77798462 3.28010559 C79.47039275 3.27077226 73.16295641 3.24614121 66.85543311 3.21605712 C59.67537601 3.18255305 52.49531158 3.16603718 45.3151958 3.15097082 C30.54338423 3.11959267 15.77169482 3.06680726 1 3 C0.67 2.01 0.34 1.02 0 0 Z " fill="#DCDCDC" transform="translate(332,237)"/>
<path d="M0 0 C-0.66 0 -1.32 0 -2 0 C-1.67 2.31 -1.34 4.62 -1 7 C-3.31 7 -5.62 7 -8 7 C-8 6.34 -8 5.68 -8 5 C-8.66 5 -9.32 5 -10 5 C-10 5.66 -10 6.32 -10 7 C-16.15234375 7.09765625 -16.15234375 7.09765625 -18 7 C-19 6 -19 6 -19.125 3 C-19 0 -19 0 -18 -1 C-16.41736123 -1.046893 -14.83289002 -1.03746485 -13.25 -1 C-10.32772205 -0.95831273 -7.93206042 -1.01445523 -5.0625 -1.625 C-3 -2 -3 -2 0 0 Z " fill="#996E75" transform="translate(120,129)"/>
<path d="M0 0 C-0.66 1.32 -1.32 2.64 -2 4 C-2.7216333 3.97897217 -3.4432666 3.95794434 -4.18676758 3.9362793 C-13.30289022 3.79263473 -22.19997851 4.53456983 -31.25170898 5.54418945 C-33.72047577 5.81613239 -36.19092463 6.06555857 -38.66210938 6.31445312 C-40.23712694 6.48562484 -41.8120034 6.65810116 -43.38671875 6.83203125 C-44.12307053 6.90404251 -44.8594223 6.97605377 -45.61808777 7.05024719 C-47.89978177 7.28661691 -47.89978177 7.28661691 -51 8 C-51.66 8.99 -52.32 9.98 -53 11 C-53 9.02 -53 7.04 -53 5 C-46.25599641 4.28428493 -39.51157381 3.5726242 -32.7668457 2.86376953 C-30.47280202 2.62218885 -28.17885556 2.37968301 -25.88500977 2.13623047 C-22.58635226 1.78629711 -19.28735848 1.43970113 -15.98828125 1.09375 C-14.96414627 0.9843811 -13.94001129 0.87501221 -12.88484192 0.7623291 C-11.92422348 0.66222534 -10.96360504 0.56212158 -9.97387695 0.45898438 C-8.71145927 0.32574768 -8.71145927 0.32574768 -7.42353821 0.18981934 C-4.93877399 -0.00479542 -2.49131126 -0.03264629 0 0 Z " fill="#D398AB" transform="translate(293,46)"/>
<path d="M0 0 C3.3125 -0.25 3.3125 -0.25 7 0 C9.76759851 2.46567867 9.99550108 3.94361348 10.29296875 7.671875 C10.27316751 9.03156035 10.23759202 10.3910934 10.1875 11.75 C10.17396484 12.44738281 10.16042969 13.14476562 10.14648438 13.86328125 C10.1112945 15.57585541 10.05749155 17.28802941 10 19 C8.02 19 6.04 19 4 19 C3.67 14.38 3.34 9.76 3 5 C1.68 5 0.36 5 -1 5 C-0.67 3.35 -0.34 1.7 0 0 Z " fill="#7662C6" transform="translate(81,320)"/>
<path d="M0 0 C3.66666667 0 7.33333333 0 11 0 C11 1.65 11 3.3 11 5 C9.35 5.33 7.7 5.66 6 6 C5.67 10.29 5.34 14.58 5 19 C3.35 19 1.7 19 0 19 C0 12.73 0 6.46 0 0 Z " fill="#6C56C2" transform="translate(381,209)"/>
<path d="M0 0 C3.63 0 7.26 0 11 0 C11 1.32 11 2.64 11 4 C9.35 4.66 7.7 5.32 6 6 C5.67 10.29 5.34 14.58 5 19 C3.35 19 1.7 19 0 19 C0 12.73 0 6.46 0 0 Z " fill="#6F59C3" transform="translate(114,320)"/>
<path d="M0 0 C1.32 0 2.64 0 4 0 C4 1.65 4 3.3 4 5 C2.35 5 0.7 5 -1 5 C-1.33 9.62 -1.66 14.24 -2 19 C-3.65 19 -5.3 19 -7 19 C-7 13.06 -7 7.12 -7 1 C-5.35 1 -3.7 1 -2 1 C-1.67 1.33 -1.34 1.66 -1 2 C-0.67 1.34 -0.34 0.68 0 0 Z " fill="#6A53C1" transform="translate(443,209)"/>
<path d="M0 0 C0.9075 0.165 1.815 0.33 2.75 0.5 C5.91372977 0.98672766 7.94173339 0.80954116 11 0 C11 0.66 11 1.32 11 2 C11.66 2 12.32 2 13 2 C13 1.34 13 0.68 13 0 C13.99 0.33 14.98 0.66 16 1 C16 3.31 16 5.62 16 8 C15.443125 7.814375 14.88625 7.62875 14.3125 7.4375 C11.58278055 6.92106659 9.68864419 7.37954365 7 8 C4.16032769 8 1.76264289 7.59732819 -1 7 C-1.04254356 5.00045254 -1.04080783 2.99958364 -1 1 C-0.67 0.67 -0.34 0.34 0 0 Z " fill="#3C2B2E" transform="translate(192,190)"/>
<path d="M0 0 C0.9075 0.165 1.815 0.33 2.75 0.5 C5.91372977 0.98672766 7.94173339 0.80954116 11 0 C11 0.66 11 1.32 11 2 C11.66 2 12.32 2 13 2 C13 1.34 13 0.68 13 0 C13.99 0.33 14.98 0.66 16 1 C16 3.31 16 5.62 16 8 C15.443125 7.814375 14.88625 7.62875 14.3125 7.4375 C11.58278055 6.92106659 9.68864419 7.37954365 7 8 C4.16032769 8 1.76264289 7.59732819 -1 7 C-1.04254356 5.00045254 -1.04080783 2.99958364 -1 1 C-0.67 0.67 -0.34 0.34 0 0 Z " fill="#3C2B2E" transform="translate(192,110)"/>
<path d="M0 0 C8.71682073 2.27119492 17.38516957 4.65428732 26.01147461 7.2487793 C30.64606615 8.63461029 35.2997904 9.85514448 40 11 C40 11.33 40 11.66 40 12 C37.27001324 11.88562349 34.5415418 11.75888594 31.8125 11.625 C31.04357422 11.5940625 30.27464844 11.563125 29.48242188 11.53125 C25.20725705 11.31106984 21.94320011 10.77908692 18 9 C16.02679203 8.516657 14.04709849 8.05921074 12.0625 7.625 C7.22519201 6.44996958 3.7767196 5.25217521 0 2 C0 1.34 0 0.68 0 0 Z " fill="#DD9FAE" transform="translate(201,52)"/>
<path d="M0 0 C3.60964568 0 5.72921858 0.03087958 9 1 C8.67 1.33 8.34 1.66 8 2 C8.66 2.66 9.32 3.32 10 4 C9.03320312 4.29003906 9.03320312 4.29003906 8.046875 4.5859375 C5.65648799 5.88708247 5.65648799 5.88708247 5.390625 9.0390625 C5.34421875 10.22242188 5.2978125 11.40578125 5.25 12.625 C5.19328125 13.81351563 5.1365625 15.00203125 5.078125 16.2265625 C5.05234375 17.14179687 5.0265625 18.05703125 5 19 C3.35 19 1.7 19 0 19 C0 12.73 0 6.46 0 0 Z " fill="#6B54C1" transform="translate(401,35)"/>
<path d="M0 0 C0.66 0 1.32 0 2 0 C2 3.63 2 7.26 2 11 C-7.5 11 -7.5 11 -12 10 C-12.625 7.625 -12.625 7.625 -13 5 C-12.34 4.34 -11.68 3.68 -11 3 C-8.66253478 3.30300475 -6.32914823 3.63858045 -4 4 C-1.67841935 3.65340705 -1.67841935 3.65340705 0 3 C0 2.01 0 1.02 0 0 Z " fill="#483437" transform="translate(157,89)"/>
<path d="M0 0 C0.99 0 1.98 0 3 0 C3 0.99 3 1.98 3 3 C7.05767064 3.8492799 9.97469488 3.92006974 14 3 C15 4 15 4 15.0625 7.0625 C15.041875 8.031875 15.02125 9.00125 15 10 C10.2579733 11.05378371 5.86579025 11 1 11 C0.67 7.37 0.34 3.74 0 0 Z " fill="#6B4D52" transform="translate(207,165)"/>
<path d="M0 0 C1.51400391 0.01740234 1.51400391 0.01740234 3.05859375 0.03515625 C4.07050781 0.04417969 5.08242187 0.05320312 6.125 0.0625 C7.29869141 0.07990234 7.29869141 0.07990234 8.49609375 0.09765625 C8.82609375 1.41765625 9.15609375 2.73765625 9.49609375 4.09765625 C8.17609375 4.09765625 6.85609375 4.09765625 5.49609375 4.09765625 C5.49609375 4.75765625 5.49609375 5.41765625 5.49609375 6.09765625 C7.14609375 5.76765625 8.79609375 5.43765625 10.49609375 5.09765625 C9.50609375 6.58265625 9.50609375 6.58265625 8.49609375 8.09765625 C7.28953125 7.85015625 7.28953125 7.85015625 6.05859375 7.59765625 C3.76764945 7.06573786 3.76764945 7.06573786 2.49609375 7.09765625 C2.16609375 8.41765625 1.83609375 9.73765625 1.49609375 11.09765625 C-0.48390625 11.09765625 -2.46390625 11.09765625 -4.50390625 11.09765625 C-4.36347748 9.45135297 -4.21641296 7.80561446 -4.06640625 6.16015625 C-3.98519531 5.24363281 -3.90398437 4.32710937 -3.8203125 3.3828125 C-3.37885871 0.19453512 -3.24881473 0.12670884 0 0 Z " fill="#CE939C" transform="translate(194.50390625,127.90234375)"/>
<path d="M0 0 C1.23556641 0.01740234 1.23556641 0.01740234 2.49609375 0.03515625 C3.32238281 0.04417969 4.14867187 0.05320313 5 0.0625 C5.63808594 0.07410156 6.27617187 0.08570313 6.93359375 0.09765625 C6.93359375 2.73765625 6.93359375 5.37765625 6.93359375 8.09765625 C5.61359375 8.09765625 4.29359375 8.09765625 2.93359375 8.09765625 C2.60359375 9.08765625 2.27359375 10.07765625 1.93359375 11.09765625 C-0.04640625 11.09765625 -2.02640625 11.09765625 -4.06640625 11.09765625 C-3.92597748 9.45135297 -3.77891296 7.80561446 -3.62890625 6.16015625 C-3.54769531 5.24363281 -3.46648437 4.32710937 -3.3828125 3.3828125 C-2.93361936 0.13863986 -2.93361936 0.13863986 0 0 Z " fill="#715156" transform="translate(125.06640625,243.90234375)"/>
<path d="M0 0 C0.66 0 1.32 0 2 0 C2 3.63 2 7.26 2 11 C-3 11 -3 11 -6 9 C-6 9.66 -6 10.32 -6 11 C-7.65 10.67 -9.3 10.34 -11 10 C-11.625 7.625 -11.625 7.625 -12 5 C-11.34 4.34 -10.68 3.68 -10 3 C-7.99548879 3.30503431 -5.99551782 3.64080679 -4 4 C-1.72349255 3.6422386 -1.72349255 3.6422386 0 3 C0 2.01 0 1.02 0 0 Z " fill="#63474C" transform="translate(108,223)"/>
<path d="M0 0 C0.66 0 1.32 0 2 0 C2 3.63 2 7.26 2 11 C-3 11 -3 11 -6 9 C-6 9.66 -6 10.32 -6 11 C-7.65 10.67 -9.3 10.34 -11 10 C-11.625 7.625 -11.625 7.625 -12 5 C-11.34 4.34 -10.68 3.68 -10 3 C-7.99548879 3.30503431 -5.99551782 3.64080679 -4 4 C-1.72349255 3.6422386 -1.72349255 3.6422386 0 3 C0 2.01 0 1.02 0 0 Z " fill="#63474C" transform="translate(108,205)"/>
<path d="M0 0 C1.98 1.65 3.96 3.3 6 5 C6.66 3.35 7.32 1.7 8 0 C11.48390824 1.27585648 14.32181079 2.75475522 17.3203125 4.93359375 C18.10277344 5.50013672 18.88523437 6.06667969 19.69140625 6.65039062 C20.49449219 7.24013672 21.29757812 7.82988281 22.125 8.4375 C22.93582031 9.02337891 23.74664062 9.60925781 24.58203125 10.21289062 C27.93357777 12.65314888 31.13319275 14.99114375 34 18 C32.68 18 31.36 18 30 18 C30 17.34 30 16.68 30 16 C27.525 15.505 27.525 15.505 25 15 C25 14.34 25 13.68 25 13 C24.34 13 23.68 13 23 13 C23 12.34 23 11.68 23 11 C20.525 10.505 20.525 10.505 18 10 C18 9.34 18 8.68 18 8 C17.34 8 16.68 8 16 8 C16 7.34 16 6.68 16 6 C14.081875 5.9690625 14.081875 5.9690625 12.125 5.9375 C11.40570313 5.92589844 10.68640625 5.91429687 9.9453125 5.90234375 C7.91814596 5.87350758 7.91814596 5.87350758 6 7 C3.875 6.5625 3.875 6.5625 2 6 C2 5.34 2 4.68 2 4 C1.34 4 0.68 4 0 4 C0 2.68 0 1.36 0 0 Z " fill="#DCDBE1" transform="translate(332,172)"/>
<path d="M0 0 C4.59306718 0 8.53585851 0.03478022 13 1 C13.33 3.31 13.66 5.62 14 8 C9.66666667 8 5.33333333 8 1 8 C0.67 8.99 0.34 9.98 0 11 C0 7.37 0 3.74 0 0 Z " fill="#63474C" transform="translate(127,190)"/>
<path d="M0 0 C4.59306718 0 8.53585851 0.03478022 13 1 C13.33 3.31 13.66 5.62 14 8 C9.66666667 8 5.33333333 8 1 8 C0.67 8.99 0.34 9.98 0 11 C0 7.37 0 3.74 0 0 Z " fill="#63474C" transform="translate(140,146)"/>
<path d="M0 0 C4.59306718 0 8.53585851 0.03478022 13 1 C13.33 3.31 13.66 5.62 14 8 C9.66666667 8 5.33333333 8 1 8 C0.67 8.99 0.34 9.98 0 11 C0 7.37 0 3.74 0 0 Z " fill="#63474C" transform="translate(127,110)"/>
<path d="M0 0 C1.65 0 3.3 0 5 0 C5 6.27 5 12.54 5 19 C3.35 19 1.7 19 0 19 C0 12.73 0 6.46 0 0 Z " fill="#6750C0" transform="translate(149,320)"/>
<path d="M0 0 C0.99 0 1.98 0 3 0 C3 3.63 3 7.26 3 11 C-6.375 11 -6.375 11 -11 10 C-11.125 7.625 -11.125 7.625 -11 5 C-10.34 4.34 -9.68 3.68 -9 3 C-6.875 3.375 -6.875 3.375 -5 4 C-5 4.99 -5 5.98 -5 7 C-6.32 7 -7.64 7 -9 7 C-9 7.66 -9 8.32 -9 9 C-7.35 8.67 -5.7 8.34 -4 8 C-3.67 6.68 -3.34 5.36 -3 4 C-1.68 3.67 -0.36 3.34 1 3 C0.67 2.01 0.34 1.02 0 0 Z " fill="#4F393D" transform="translate(186,125)"/>
<path d="M0 0 C1.65 0 3.3 0 5 0 C5 6.27 5 12.54 5 19 C3.35 19 1.7 19 0 19 C0 12.73 0 6.46 0 0 Z " fill="#6A54C1" transform="translate(392,35)"/>
<path d="M0 0 C0.99 0 1.98 0 3 0 C3 0.99 3 1.98 3 3 C6.66305234 3.74926071 9.42355152 4.2380014 13 3 C13.66 4.32 14.32 5.64 15 7 C13.35 7 11.7 7 10 7 C10 7.66 10 8.32 10 9 C11.65 8.67 13.3 8.34 15 8 C14.67 8.99 14.34 9.98 14 11 C12.865625 10.814375 11.73125 10.62875 10.5625 10.4375 C9.386875 10.293125 8.21125 10.14875 7 10 C6.67 10.33 6.34 10.66 6 11 C4.35 11 2.7 11 1 11 C0.67 7.37 0.34 3.74 0 0 Z " fill="#62464B" transform="translate(159,187)"/>
<path d="M0 0 C0.99 0 1.98 0 3 0 C3 0.99 3 1.98 3 3 C6.66305234 3.74926071 9.42355152 4.2380014 13 3 C13.66 4.32 14.32 5.64 15 7 C13.35 7 11.7 7 10 7 C10 7.66 10 8.32 10 9 C11.65 8.67 13.3 8.34 15 8 C14.67 8.99 14.34 9.98 14 11 C12.865625 10.814375 11.73125 10.62875 10.5625 10.4375 C9.386875 10.293125 8.21125 10.14875 7 10 C6.67 10.33 6.34 10.66 6 11 C4.35 11 2.7 11 1 11 C0.67 7.37 0.34 3.74 0 0 Z " fill="#62464B" transform="translate(159,107)"/>
<path d="M0 0 C1.23556641 0.01740234 1.23556641 0.01740234 2.49609375 0.03515625 C3.32238281 0.04417969 4.14867187 0.05320312 5 0.0625 C5.63808594 0.07410156 6.27617187 0.08570312 6.93359375 0.09765625 C8.26692708 2.76432292 9.60026042 5.43098958 10.93359375 8.09765625 C9.94359375 8.09765625 8.95359375 8.09765625 7.93359375 8.09765625 C7.93359375 7.43765625 7.93359375 6.77765625 7.93359375 6.09765625 C7.27359375 6.09765625 6.61359375 6.09765625 5.93359375 6.09765625 C5.93359375 6.75765625 5.93359375 7.41765625 5.93359375 8.09765625 C-0.21875 8.1953125 -0.21875 8.1953125 -2.06640625 8.09765625 C-3.06640625 7.09765625 -3.06640625 7.09765625 -3.19140625 4.09765625 C-3.02663038 0.14303546 -3.02663038 0.14303546 0 0 Z " fill="#9A6E75" transform="translate(150.06640625,73.90234375)"/>
<path d="M0 0 C1.9375 0.8125 1.9375 0.8125 3.9375 2.8125 C3.36057692 9.38942308 3.36057692 9.38942308 1.9375 10.8125 C-0.5 11.0625 -0.5 11.0625 -3.0625 10.8125 C-5.21752531 7.57996204 -5.53106135 6.56099077 -5.0625 2.8125 C-3.48626085 0.44814127 -2.87976021 -0.26179638 0 0 Z " fill="#E6E2F4" transform="translate(403.0625,213.1875)"/>
<path d="M0 0 C2.5625 0.25 2.5625 0.25 5 1 C6.39935013 3.79870027 6.25265405 5.90498792 6 9 C4.75 10.9375 4.75 10.9375 3 12 C0.86254078 11.74853421 -0.45925779 11.54074221 -2 10 C-2.27314815 4.26388889 -2.27314815 4.26388889 -2 2 C-1.34 1.34 -0.68 0.68 0 0 Z " fill="#E9E5F5" transform="translate(367,213)"/>
<path d="M0 0 C4.55555556 0.55555556 4.55555556 0.55555556 6 2 C6.26293056 6.03160191 6.29404844 7.55892734 4 11 C-0.875 10.125 -0.875 10.125 -2 9 C-2.1875 5.5625 -2.1875 5.5625 -2 2 C-1.34 1.34 -0.68 0.68 0 0 Z " fill="#EBE8F6" transform="translate(134,324)"/>
<path d="M0 0 C2.93453261 0.36681658 3.86437246 0.86437246 6 3 C6.25 6 6.25 6 6 9 C4 11 4 11 1.4375 11.1875 C-1 11 -1 11 -2 10 C-2.27314815 4.26388889 -2.27314815 4.26388889 -2 2 C-1.34 1.34 -0.68 0.68 0 0 Z " fill="#E9E6F6" transform="translate(346,213)"/>
<path d="M0 0 C1.51400391 0.01740234 1.51400391 0.01740234 3.05859375 0.03515625 C4.07050781 0.04417969 5.08242187 0.05320313 6.125 0.0625 C7.29869141 0.07990234 7.29869141 0.07990234 8.49609375 0.09765625 C8.49609375 0.75765625 8.49609375 1.41765625 8.49609375 2.09765625 C7.50609375 2.09765625 6.51609375 2.09765625 5.49609375 2.09765625 C5.82609375 4.07765625 6.15609375 6.05765625 6.49609375 8.09765625 C5.01702483 8.12454841 3.53781892 8.14400246 2.05859375 8.16015625 C0.82302734 8.17755859 0.82302734 8.17755859 -0.4375 8.1953125 C-2.50390625 8.09765625 -2.50390625 8.09765625 -3.50390625 7.09765625 C-3.62890625 4.09765625 -3.62890625 4.09765625 -3.50390625 1.09765625 C-2.50390625 0.09765625 -2.50390625 0.09765625 0 0 Z " fill="#946A71" transform="translate(240.50390625,167.90234375)"/>
<path d="M0 0 C4.55555556 0.55555556 4.55555556 0.55555556 6 2 C6.26293056 6.03160191 6.29404844 7.55892734 4 11 C-0.875 10.125 -0.875 10.125 -2 9 C-2.1875 5.5625 -2.1875 5.5625 -2 2 C-1.34 1.34 -0.68 0.68 0 0 Z " fill="#ECE9F7" transform="translate(377,39)"/>
<path d="M0 0 C4.55555556 0.55555556 4.55555556 0.55555556 6 2 C6.1875 5.4375 6.1875 5.4375 6 9 C5.34 9.66 4.68 10.32 4 11 C1.4375 10.75 1.4375 10.75 -1 10 C-2.38125018 7.23749964 -2.19079306 5.05268901 -2 2 C-1.34 1.34 -0.68 0.68 0 0 Z " fill="#ECE9F7" transform="translate(355,39)"/>
<path d="M0 0 C4.55555556 0.55555556 4.55555556 0.55555556 6 2 C6.26293056 6.03160191 6.29404844 7.55892734 4 11 C-0.875 10.125 -0.875 10.125 -2 9 C-2.1875 5.5625 -2.1875 5.5625 -2 2 C-1.34 1.34 -0.68 0.68 0 0 Z " fill="#ECE9F7" transform="translate(314,39)"/>
<path d="M0 0 C1.98 0 3.96 0 6 0 C6 6.6 6 13.2 6 20 C3.78545028 16.67817543 2.95381499 13.83578665 1.875 10 C1.34519531 8.14375 1.34519531 8.14375 0.8046875 6.25 C0 3 0 3 0 0 Z " fill="#F5F5F6" transform="translate(34,283)"/>
<path d="M0 0 C1.65 0.33 3.3 0.66 5 1 C5 2.98 5 4.96 5 7 C5.66 7 6.32 7 7 7 C7 4.69 7 2.38 7 0 C8.66611905 -0.042721 10.33382885 -0.04063832 12 0 C13 1 13 1 13.0625 4.5625 C13.041875 5.696875 13.02125 6.83125 13 8 C12.01 7.67 11.02 7.34 10 7 C10.33 5.35 10.66 3.7 11 2 C10.34 2 9.68 2 9 2 C9 3.98 9 5.96 9 8 C6.625 8.1875 6.625 8.1875 4 8 C3.34 7.01 2.68 6.02 2 5 C2 5.99 2 6.98 2 8 C1.01 7.67 0.02 7.34 -1 7 C-0.67 4.69 -0.34 2.38 0 0 Z " fill="#362729" transform="translate(204,208)"/>
<path d="M0 0 C4.55555556 0.55555556 4.55555556 0.55555556 6 2 C6.23529412 7.52941176 6.23529412 7.52941176 5 10 C3.00045254 10.04254356 0.99958364 10.04080783 -1 10 C-2 9 -2 9 -2.1875 5.5625 C-2 2 -2 2 0 0 Z " fill="#EEEBF7" transform="translate(429,39)"/>
<path d="M0 0 C4.29 0 8.58 0 13 0 C13 1.98 13 3.96 13 6 C10.03 6 7.06 6 4 6 C4 5.34 4 4.68 4 4 C2.68 3.67 1.36 3.34 0 3 C0 2.01 0 1.02 0 0 Z " fill="#D89CA6" transform="translate(299,62)"/>
<path d="M0 0 C2.97 0 5.94 0 9 0 C9.66 2.31 10.32 4.62 11 7 C10.01 7.33 9.02 7.66 8 8 C8 6.02 8 4.04 8 2 C7.34 2 6.68 2 6 2 C6 3.98 6 5.96 6 8 C3.69 8 1.38 8 -1 8 C-0.67 5.36 -0.34 2.72 0 0 Z " fill="#3D2D2F" transform="translate(133,92)"/>
<path d="M0 0 C1.98 0 3.96 0 6 0 C6.33 0.33 6.66 0.66 7 1 C6.71269945 3.33944736 6.38063221 5.6739143 6 8 C4.68 8 3.36 8 2 8 C2.66 9.32 3.32 10.64 4 12 C2.68 12 1.36 12 0 12 C0 8.04 0 4.08 0 0 Z " fill="#725257" transform="translate(120,168)"/>
<path d="M0 0 C2.1640625 -0.29296875 2.1640625 -0.29296875 4.625 -0.1875 C5.44226563 -0.16042969 6.25953125 -0.13335937 7.1015625 -0.10546875 C8.04128906 -0.05326172 8.04128906 -0.05326172 9 0 C8.01 0.33 7.02 0.66 6 1 C6 1.66 6 2.32 6 3 C6.66 3.33 7.32 3.66 8 4 C7.34 4 6.68 4 6 4 C6.33 6.31 6.66 8.62 7 11 C5.68 10.67 4.36 10.34 3 10 C3.33 8.02 3.66 6.04 4 4 C3.01 4 2.02 4 1 4 C1.33 6.31 1.66 8.62 2 11 C0.68 10.67 -0.64 10.34 -2 10 C-2.25 3.375 -2.25 3.375 0 0 Z " fill="#4D383B" transform="translate(269,71)"/>
<path d="M0 0 C3.0625 0.1875 3.0625 0.1875 5.0625 2.1875 C4.6875 4.8125 4.6875 4.8125 4.0625 7.1875 C0.77273192 8.28408936 -0.65053767 7.98703138 -3.9375 7.1875 C-3.98004356 5.18795254 -3.97830783 3.18708364 -3.9375 1.1875 C-2.9375 0.1875 -2.9375 0.1875 0 0 Z " fill="#E8A6B1" transform="translate(104.9375,127.8125)"/>
<path d="M0 0 C0.99 0 1.98 0 3 0 C3 0.99 3 1.98 3 3 C4.32 3.33 5.64 3.66 7 4 C7 5.98 7 7.96 7 10 C7.66 10 8.32 10 9 10 C9 7.69 9 5.38 9 3 C9.66 3 10.32 3 11 3 C11.33 5.64 11.66 8.28 12 11 C9.69 11 7.38 11 5 11 C5 9.02 5 7.04 5 5 C4.34 5 3.68 5 3 5 C3 6.98 3 8.96 3 11 C2.34 11 1.68 11 1 11 C0.67 7.37 0.34 3.74 0 0 Z " fill="#3A2A2D" transform="translate(152,205)"/>
<path d="M0 0 C0.99 0 1.98 0 3 0 C3 0.99 3 1.98 3 3 C3.928125 3.2165625 3.928125 3.2165625 4.875 3.4375 C7 4 7 4 9 5 C9 6.32 9 7.64 9 9 C6 11 6 11 1 11 C0.67 7.37 0.34 3.74 0 0 Z " fill="#6B4D52" transform="translate(96,143)"/>
<path d="M0 0 C1.32 0 2.64 0 4 0 C4 0.66 4 1.32 4 2 C4.66 2 5.32 2 6 2 C6 1.34 6 0.68 6 0 C6.99 0.33 7.98 0.66 9 1 C9 3.31 9 5.62 9 8 C5.7 8 2.4 8 -1 8 C-0.67 6.68 -0.34 5.36 0 4 C0.99 3.67 1.98 3.34 3 3 C3 2.34 3 1.68 3 1 C1.02 1.99 1.02 1.99 -1 3 C-0.67 2.01 -0.34 1.02 0 0 Z " fill="#4A3539" transform="translate(163,74)"/>
<path d="M0 0 C0.99 0 1.98 0 3 0 C3 3.63 3 7.26 3 11 C1.00045254 11.04254356 -1.00041636 11.04080783 -3 11 C-4 10 -4 10 -4.1875 7.5625 C-4 5 -4 5 -2 3 C-1.01 3 -0.02 3 1 3 C0.67 2.01 0.34 1.02 0 0 Z " fill="#36282A" transform="translate(222,205)"/>
<path d="M0 0 C0.99 0 1.98 0 3 0 C3 3.63 3 7.26 3 11 C1.00045254 11.04254356 -1.00041636 11.04080783 -3 11 C-4 10 -4 10 -4.1875 7.5625 C-4 5 -4 5 -2 3 C-1.01 3 -0.02 3 1 3 C0.67 2.01 0.34 1.02 0 0 Z " fill="#36282A" transform="translate(166,143)"/>
<path d="M0 0 C0.66 0 1.32 0 2 0 C2.16726545 1.64577259 2.33379612 3.29161987 2.5 4.9375 C2.63921875 6.31228516 2.63921875 6.31228516 2.78125 7.71484375 C3 10 3 10 3 11 C0.69 11 -1.62 11 -4 11 C-4 8.03 -4 5.06 -4 2 C-3.34 1.67 -2.68 1.34 -2 1 C-2 1.66 -2 2.32 -2 3 C-1.34 3 -0.68 3 0 3 C0 2.01 0 1.02 0 0 Z " fill="#7F5B61" transform="translate(231,125)"/>
<path d="M0 0 C1.32 0 2.64 0 4 0 C4.33 2.31 4.66 4.62 5 7 C5.66 7 6.32 7 7 7 C7 4.69 7 2.38 7 0 C8.32 0 9.64 0 11 0 C11 0.66 11 1.32 11 2 C10.01 2 9.02 2 8 2 C8.33 3.98 8.66 5.96 9 8 C5.7 8 2.4 8 -1 8 C-0.67 6.68 -0.34 5.36 0 4 C0 2.68 0 1.36 0 0 Z " fill="#503A3D" transform="translate(110,244)"/>
<path d="M0 0 C0.99 0 1.98 0 3 0 C3 3.63 3 7.26 3 11 C1.02 11 -0.96 11 -3 11 C-3.625 8.125 -3.625 8.125 -4 5 C-3.34 4.34 -2.68 3.68 -2 3 C-1.01 3 -0.02 3 1 3 C0.67 2.01 0.34 1.02 0 0 Z " fill="#342629" transform="translate(158,143)"/>
<path d="M0 0 C0.66 0 1.32 0 2 0 C2 2.31 2 4.62 2 7 C2.66 7 3.32 7 4 7 C3.67 4.69 3.34 2.38 3 0 C4.98 0 6.96 0 9 0 C9.66 2.31 10.32 4.62 11 7 C10.01 7.33 9.02 7.66 8 8 C8 6.02 8 4.04 8 2 C7.34 2 6.68 2 6 2 C6 3.98 6 5.96 6 8 C3.69 8 1.38 8 -1 8 C-0.67 5.36 -0.34 2.72 0 0 Z " fill="#342729" transform="translate(184,226)"/>
<path d="M0 0 C0.66 0 1.32 0 2 0 C2 3.63 2 7.26 2 11 C0.35 11 -1.3 11 -3 11 C-3.66 10.34 -4.32 9.68 -5 9 C-4.625 6.375 -4.625 6.375 -4 4 C-2.68 3.67 -1.36 3.34 0 3 C0 2.01 0 1.02 0 0 Z " fill="#694C51" transform="translate(200,223)"/>
<path d="M0 0 C1.65 0 3.3 0 5 0 C6 1 6 1 6.0625 4.0625 C6.041875 5.031875 6.02125 6.00125 6 7 C4.68 7.33 3.36 7.66 2 8 C2.33 9.32 2.66 10.64 3 12 C1.68 11.67 0.36 11.34 -1 11 C-0.67 7.37 -0.34 3.74 0 0 Z " fill="#91696F" transform="translate(142,168)"/>
<path d="M0 0 C0.66 0 1.32 0 2 0 C2 3.63 2 7.26 2 11 C0.35 11 -1.3 11 -3 11 C-3.66 10.34 -4.32 9.68 -5 9 C-4.625 6.375 -4.625 6.375 -4 4 C-2.68 3.67 -1.36 3.34 0 3 C0 2.01 0 1.02 0 0 Z " fill="#694C51" transform="translate(144,125)"/>
<path d="M0 0 C0.66 0 1.32 0 2 0 C2.33 0.99 2.66 1.98 3 3 C5.01508358 3.73323796 5.01508358 3.73323796 7 4 C7.125 6.375 7.125 6.375 7 9 C6.34 9.66 5.68 10.32 5 11 C2.375 10.625 2.375 10.625 0 10 C0 6.7 0 3.4 0 0 Z " fill="#6D4F54" transform="translate(104,89)"/>
<path d="M0 0 C1.32 0 2.64 0 4 0 C4 0.66 4 1.32 4 2 C4.66 2 5.32 2 6 2 C6 1.34 6 0.68 6 0 C6.99 0.33 7.98 0.66 9 1 C9 3.31 9 5.62 9 8 C8.38125 7.814375 7.7625 7.62875 7.125 7.4375 C4.95839822 6.76313824 4.95839822 6.76313824 3 8 C2.01 7.34 1.02 6.68 0 6 C-0.1875 2.875 -0.1875 2.875 0 0 Z " fill="#886268" transform="translate(199,190)"/>
<path d="M0 0 C1.32 0 2.64 0 4 0 C4 0.66 4 1.32 4 2 C4.66 2 5.32 2 6 2 C6 1.34 6 0.68 6 0 C6.99 0.33 7.98 0.66 9 1 C9 3.31 9 5.62 9 8 C8.38125 7.814375 7.7625 7.62875 7.125 7.4375 C4.95839822 6.76313824 4.95839822 6.76313824 3 8 C2.01 7.34 1.02 6.68 0 6 C-0.1875 2.875 -0.1875 2.875 0 0 Z " fill="#886268" transform="translate(199,110)"/>
<path d="M0 0 C0.66 0 1.32 0 2 0 C2 3.63 2 7.26 2 11 C0.35 11 -1.3 11 -3 11 C-4 10 -4 10 -4.0625 6.9375 C-4.041875 5.968125 -4.02125 4.99875 -4 4 C-2.68 3.67 -1.36 3.34 0 3 C0 2.01 0 1.02 0 0 Z " fill="#684B50" transform="translate(157,89)"/>
<path d="M0 0 C0.66 0 1.32 0 2 0 C2 0.99 2 1.98 2 3 C3.32 3.33 4.64 3.66 6 4 C6.33 6.31 6.66 8.62 7 11 C6.01 10.67 5.02 10.34 4 10 C4 8.35 4 6.7 4 5 C3.67 5 3.34 5 3 5 C2.67 6.98 2.34 8.96 2 11 C0.02 11 -1.96 11 -4 11 C-4.33 8.36 -4.66 5.72 -5 3 C-4.34 2.67 -3.68 2.34 -3 2 C-2.34 2.66 -1.68 3.32 -1 4 C-1.66 4 -2.32 4 -3 4 C-3 5.98 -3 7.96 -3 10 C-2.01 10 -1.02 10 0 10 C0 6.7 0 3.4 0 0 Z " fill="#261C1E" transform="translate(235,205)"/>
<path d="M0 0 C1.98 0 3.96 0 6 0 C5.34 1.65 4.68 3.3 4 5 C3.67 3.68 3.34 2.36 3 1 C2.34 1 1.68 1 1 1 C1.18828772 3.44480079 1.18828772 3.44480079 2 6 C3.96758273 7.36020151 3.96758273 7.36020151 6 8 C5.67 8.99 5.34 9.98 5 11 C3.02 11 1.04 11 -1 11 C-1.0270043 9.54176788 -1.04639787 8.08339325 -1.0625 6.625 C-1.07410156 5.81289062 -1.08570313 5.00078125 -1.09765625 4.1640625 C-1 2 -1 2 0 0 Z " fill="#3A2B2D" transform="translate(184,146)"/>
<path d="M0 0 C1.92592939 2.88889409 2.85839056 5.20191125 3.9453125 8.47265625 C4.29980469 9.53677734 4.65429688 10.60089844 5.01953125 11.69726562 C5.38433594 12.80779297 5.74914063 13.91832031 6.125 15.0625 C6.68380859 16.7340918 6.68380859 16.7340918 7.25390625 18.43945312 C10 26.73305861 10 26.73305861 10 29 C9.34 29 8.68 29 8 29 C7.15919981 26.58570231 6.32718598 24.16896007 5.5 21.75 C5.26152344 21.06808594 5.02304687 20.38617188 4.77734375 19.68359375 C3.60578713 16.23586997 3 13.68297096 3 10 C2.34 10 1.68 10 1 10 C-0.1577506 6.52674819 -0.06866652 3.63932552 0 0 Z " fill="#D4D1E1" transform="translate(30,292)"/>
<path d="M0 0 C4.29 0 8.58 0 13 0 C12.67 1.32 12.34 2.64 12 4 C10.37675914 4.22162329 8.751279 4.42689803 7.125 4.625 C5.76761719 4.79902344 5.76761719 4.79902344 4.3828125 4.9765625 C3.59648437 4.98429688 2.81015625 4.99203125 2 5 C1.34 4.34 0.68 3.68 0 3 C0 2.01 0 1.02 0 0 Z " fill="#DFDAF2" transform="translate(420,220)"/>
<path d="M0 0 C2.625 0.375 2.625 0.375 5 1 C5.04254356 2.99954746 5.04080783 5.00041636 5 7 C4 8 4 8 1.4375 8.0625 C0.633125 8.041875 -0.17125 8.02125 -1 8 C-1.625 5.125 -1.625 5.125 -2 2 C-1.34 1.34 -0.68 0.68 0 0 Z " fill="#3C2B2E" transform="translate(185,208)"/>
<path d="M0 0 C0.66 0 1.32 0 2 0 C2 3.63 2 7.26 2 11 C0.35 11 -1.3 11 -3 11 C-3.33 10.67 -3.66 10.34 -4 10 C-3.71269945 7.66055264 -3.38063221 5.3260857 -3 3 C-1.68 3 -0.36 3 1 3 C0.67 2.01 0.34 1.02 0 0 Z " fill="#684B50" transform="translate(233,165)"/>
<path d="M0 0 C2.625 0.375 2.625 0.375 5 1 C5.04254356 2.99954746 5.04080783 5.00041636 5 7 C4 8 4 8 1.4375 8.0625 C0.633125 8.041875 -0.17125 8.02125 -1 8 C-1.625 5.125 -1.625 5.125 -2 2 C-1.34 1.34 -0.68 0.68 0 0 Z " fill="#3C2B2E" transform="translate(211,128)"/>
<path d="M0 0 C2.625 0.375 2.625 0.375 5 1 C5.04254356 2.99954746 5.04080783 5.00041636 5 7 C4 8 4 8 1.4375 8.0625 C0.633125 8.041875 -0.17125 8.02125 -1 8 C-1.625 5.125 -1.625 5.125 -2 2 C-1.34 1.34 -0.68 0.68 0 0 Z " fill="#3C2B2E" transform="translate(261,74)"/>
<path d="M0 0 C2.625 0.375 2.625 0.375 5 1 C5.04254356 2.99954746 5.04080783 5.00041636 5 7 C4 8 4 8 1.4375 8.0625 C0.633125 8.041875 -0.17125 8.02125 -1 8 C-1.625 5.125 -1.625 5.125 -2 2 C-1.34 1.34 -0.68 0.68 0 0 Z " fill="#3C2B2E" transform="translate(211,74)"/>
<path d="M0 0 C1.65 0 3.3 0 5 0 C6 1 6 1 6.0625 4.0625 C6.041875 5.031875 6.02125 6.00125 6 7 C4.35 7.33 2.7 7.66 1 8 C0.67 8.99 0.34 9.98 0 11 C0 7.37 0 3.74 0 0 Z " fill="#63474C" transform="translate(182,74)"/>
<path d="M0 0 C1.67542976 0.28604898 3.34385343 0.61781233 5 1 C5.625 3.375 5.625 3.375 6 6 C5.34 6.66 4.68 7.32 4 8 C1.375 7.625 1.375 7.625 -1 7 C-1.04254356 5.00045254 -1.04080783 2.99958364 -1 1 C-0.67 0.67 -0.34 0.34 0 0 Z " fill="#2D2123" transform="translate(132,226)"/>
<path d="M0 0 C1.67542976 0.28604898 3.34385343 0.61781233 5 1 C5 2.98 5 4.96 5 7 C2.625 7.625 2.625 7.625 0 8 C-0.66 7.34 -1.32 6.68 -2 6 C-1.44444444 1.44444444 -1.44444444 1.44444444 0 0 Z " fill="#38292B" transform="translate(205,226)"/>
<path d="M0 0 C1.67542976 0.28604898 3.34385343 0.61781233 5 1 C5.625 3.375 5.625 3.375 6 6 C5.34 6.66 4.68 7.32 4 8 C1.375 7.625 1.375 7.625 -1 7 C-1.04254356 5.00045254 -1.04080783 2.99958364 -1 1 C-0.67 0.67 -0.34 0.34 0 0 Z " fill="#2D2123" transform="translate(132,208)"/>
<path d="M0 0 C1.65 0.33 3.3 0.66 5 1 C5.33 3.31 5.66 5.62 6 8 C4.02 8 2.04 8 0 8 C-1.125 5.6875 -1.125 5.6875 -2 3 C-1.34 2.01 -0.68 1.02 0 0 Z " fill="#A1737A" transform="translate(135,190)"/>
<path d="M0 0 C0.66 0 1.32 0 2 0 C2.16726545 1.64577259 2.33379612 3.29161987 2.5 4.9375 C2.63921875 6.31228516 2.63921875 6.31228516 2.78125 7.71484375 C3 10 3 10 3 11 C1.02 11 -0.96 11 -3 11 C-3.33 8.36 -3.66 5.72 -4 3 C-3.34 2.67 -2.68 2.34 -2 2 C-1.01 2.33 -0.02 2.66 1 3 C0.67 2.01 0.34 1.02 0 0 Z " fill="#65484C" transform="translate(221,187)"/>
<path d="M0 0 C0.66 0 1.32 0 2 0 C2.16726545 1.64577259 2.33379612 3.29161987 2.5 4.9375 C2.63921875 6.31228516 2.63921875 6.31228516 2.78125 7.71484375 C3 10 3 10 3 11 C0.69 11 -1.62 11 -4 11 C-4.33 8.36 -4.66 5.72 -5 3 C-4.01 2.34 -3.02 1.68 -2 1 C-1.02391783 3.92824652 -0.91773332 5.95613276 -1 9 C-0.67 6.03 -0.34 3.06 0 0 Z " fill="#422F32" transform="translate(101,187)"/>
<path d="M0 0 C0.66 0 1.32 0 2 0 C2.16726545 1.64577259 2.33379612 3.29161987 2.5 4.9375 C2.63921875 6.31228516 2.63921875 6.31228516 2.78125 7.71484375 C3 10 3 10 3 11 C0.69 11 -1.62 11 -4 11 C-4.33 8.36 -4.66 5.72 -5 3 C-4.01 2.34 -3.02 1.68 -2 1 C-1.02391783 3.92824652 -0.91773332 5.95613276 -1 9 C-0.67 6.03 -0.34 3.06 0 0 Z " fill="#422F32" transform="translate(101,165)"/>
<path d="M0 0 C1.65 0.33 3.3 0.66 5 1 C5.33 3.31 5.66 5.62 6 8 C4.02 8 2.04 8 0 8 C-1.125 5.6875 -1.125 5.6875 -2 3 C-1.34 2.01 -0.68 1.02 0 0 Z " fill="#A1737A" transform="translate(148,146)"/>
<path d="M0 0 C0.66 0 1.32 0 2 0 C2.16726545 1.64577259 2.33379612 3.29161987 2.5 4.9375 C2.63921875 6.31228516 2.63921875 6.31228516 2.78125 7.71484375 C3 10 3 10 3 11 C0.69 11 -1.62 11 -4 11 C-4.33 8.36 -4.66 5.72 -5 3 C-4.01 2.34 -3.02 1.68 -2 1 C-1.02391783 3.92824652 -0.91773332 5.95613276 -1 9 C-0.67 6.03 -0.34 3.06 0 0 Z " fill="#422F32" transform="translate(156,125)"/>
<path d="M0 0 C1.65 0.33 3.3 0.66 5 1 C5.33 3.31 5.66 5.62 6 8 C4.02 8 2.04 8 0 8 C-1.125 5.6875 -1.125 5.6875 -2 3 C-1.34 2.01 -0.68 1.02 0 0 Z " fill="#A1737A" transform="translate(135,110)"/>
<path d="M0 0 C0.66 0 1.32 0 2 0 C2.16726545 1.64577259 2.33379612 3.29161987 2.5 4.9375 C2.63921875 6.31228516 2.63921875 6.31228516 2.78125 7.71484375 C3 10 3 10 3 11 C1.02 11 -0.96 11 -3 11 C-3.33 8.36 -3.66 5.72 -4 3 C-3.34 2.67 -2.68 2.34 -2 2 C-1.01 2.33 -0.02 2.66 1 3 C0.67 2.01 0.34 1.02 0 0 Z " fill="#65484C" transform="translate(221,107)"/>
<path d="M0 0 C0.66 0 1.32 0 2 0 C2.16726545 1.64577259 2.33379612 3.29161987 2.5 4.9375 C2.63921875 6.31228516 2.63921875 6.31228516 2.78125 7.71484375 C3 10 3 10 3 11 C0.69 11 -1.62 11 -4 11 C-4.33 8.36 -4.66 5.72 -5 3 C-4.01 2.34 -3.02 1.68 -2 1 C-1.02391783 3.92824652 -0.91773332 5.95613276 -1 9 C-0.67 6.03 -0.34 3.06 0 0 Z " fill="#422F32" transform="translate(101,107)"/>
<path d="M0 0 C3.53571429 0.53571429 3.53571429 0.53571429 5 2 C5.125 4.5 5.125 4.5 5 7 C4 8 4 8 1.5 8.125 C-1 8 -1 8 -2 7 C-2.1875 4.5625 -2.1875 4.5625 -2 2 C-1.34 1.34 -0.68 0.68 0 0 Z " fill="#352729" transform="translate(114,92)"/>
<path d="M0 0 C0.66 0 1.32 0 2 0 C2.16726545 1.64577259 2.33379612 3.29161987 2.5 4.9375 C2.63921875 6.31228516 2.63921875 6.31228516 2.78125 7.71484375 C3 10 3 10 3 11 C0.69 11 -1.62 11 -4 11 C-4.33 8.36 -4.66 5.72 -5 3 C-4.01 2.34 -3.02 1.68 -2 1 C-1.02391783 3.92824652 -0.91773332 5.95613276 -1 9 C-0.67 6.03 -0.34 3.06 0 0 Z " fill="#422F32" transform="translate(85,89)"/>
<path d="M0 0 C1.67542976 0.28604898 3.34385343 0.61781233 5 1 C5 2.98 5 4.96 5 7 C2.625 7.625 2.625 7.625 0 8 C-0.66 7.34 -1.32 6.68 -2 6 C-1.44444444 1.44444444 -1.44444444 1.44444444 0 0 Z " fill="#38292B" transform="translate(237,74)"/>
<path d="M0 0 C1.65 0 3.3 0 5 0 C7 6.875 7 6.875 7 8 C4.69 8 2.38 8 0 8 C0 5.36 0 2.72 0 0 Z " fill="#876167" transform="translate(174,168)"/>
<path d="M0 0 C1.65 0 3.3 0 5 0 C7 6.875 7 6.875 7 8 C4.69 8 2.38 8 0 8 C0 5.36 0 2.72 0 0 Z " fill="#876167" transform="translate(175,146)"/>
<path d="M0 0 C1.65 0 3.3 0 5 0 C7 6.875 7 6.875 7 8 C4.69 8 2.38 8 0 8 C0 5.36 0 2.72 0 0 Z " fill="#876167" transform="translate(135,74)"/>
<path d="M0 0 C0.99 0 1.98 0 3 0 C3.33 1.65 3.66 3.3 4 5 C4.66 5 5.32 5 6 5 C5.34 3.68 4.68 2.36 4 1 C5.65 0.67 7.3 0.34 9 0 C8.67 0.66 8.34 1.32 8 2 C7.34 1.67 6.68 1.34 6 1 C6 1.66 6 2.32 6 3 C6.99 3.33 7.98 3.66 9 4 C9 5.32 9 6.64 9 8 C6.03 8 3.06 8 0 8 C0 5.36 0 2.72 0 0 Z " fill="#4C373A" transform="translate(193,168)"/>
<path d="M0 0 C1.67542976 0.28604898 3.34385343 0.61781233 5 1 C5 2.98 5 4.96 5 7 C3.34385343 7.38218767 1.67542976 7.71395102 0 8 C-1 7 -1 7 -1.125 4 C-1 1 -1 1 0 0 Z " fill="#2E2224" transform="translate(217,168)"/>
<path d="M0 0 C0.99 0 1.98 0 3 0 C3 0.99 3 1.98 3 3 C4.32 3.33 5.64 3.66 7 4 C7.33 6.31 7.66 8.62 8 11 C7.01 11 6.02 11 5 11 C5 9.02 5 7.04 5 5 C4.34 5 3.68 5 3 5 C3 6.98 3 8.96 3 11 C2.01 10.67 1.02 10.34 0 10 C0 6.7 0 3.4 0 0 Z " fill="#3A2A2D" transform="translate(227,71)"/>
<path d="M0 0 C0.99 0 1.98 0 3 0 C3 0.99 3 1.98 3 3 C4.32 3.33 5.64 3.66 7 4 C7.33 6.31 7.66 8.62 8 11 C7.01 11 6.02 11 5 11 C5 9.02 5 7.04 5 5 C4.34 5 3.68 5 3 5 C3 6.98 3 8.96 3 11 C2.34 11 1.68 11 1 11 C0.67 7.37 0.34 3.74 0 0 Z " fill="#392A2C" transform="translate(152,223)"/>
<path d="M0 0 C1.67542976 0.28604898 3.34385343 0.61781233 5 1 C5 2.98 5 4.96 5 7 C3.34385343 7.38218767 1.67542976 7.71395102 0 8 C-1 7 -1 7 -1.125 4 C-1 1 -1 1 0 0 Z " fill="#79575C" transform="translate(244,208)"/>
<path d="M0 0 C1.67542976 0.28604898 3.34385343 0.61781233 5 1 C5 2.98 5 4.96 5 7 C3.34385343 7.38218767 1.67542976 7.71395102 0 8 C-1 7 -1 7 -1.125 4 C-1 1 -1 1 0 0 Z " fill="#79575C" transform="translate(183,168)"/>
<path d="M0 0 C1.67542976 0.28604898 3.34385343 0.61781233 5 1 C5 2.98 5 4.96 5 7 C3.34385343 7.38218767 1.67542976 7.71395102 0 8 C-1 7 -1 7 -1.125 4 C-1 1 -1 1 0 0 Z " fill="#79575C" transform="translate(155,168)"/>
<path d="M0 0 C1.67542976 0.28604898 3.34385343 0.61781233 5 1 C5 2.98 5 4.96 5 7 C3.34385343 7.38218767 1.67542976 7.71395102 0 8 C-1 7 -1 7 -1.125 4 C-1 1 -1 1 0 0 Z " fill="#79575C" transform="translate(195,74)"/>
<path d="M0 0 C1.32 0 2.64 0 4 0 C4 2.64 4 5.28 4 8 C1.625 8.1875 1.625 8.1875 -1 8 C-1.66 7.01 -2.32 6.02 -3 5 C-2.34 5 -1.68 5 -1 5 C-0.67 3.35 -0.34 1.7 0 0 Z " fill="#F4AFBA" transform="translate(128,244)"/>
<path d="M0 0 C0.99 0 1.98 0 3 0 C3 1.32 3 2.64 3 4 C3.66 4 4.32 4 5 4 C4.67 2.68 4.34 1.36 4 0 C4.99 0 5.98 0 7 0 C7.33 0.99 7.66 1.98 8 3 C8.33 2.01 8.66 1.02 9 0 C9.66 0.33 10.32 0.66 11 1 C10.01 3.31 9.02 5.62 8 8 C7.01 7.34 6.02 6.68 5 6 C4.34 6.66 3.68 7.32 3 8 C2.01 5.36 1.02 2.72 0 0 Z " fill="#38292B" transform="translate(179,190)"/>
<path d="M0 0 C1.98 0 3.96 0 6 0 C6 2.64 6 5.28 6 8 C4.35 8 2.7 8 1 8 C0.67 5.36 0.34 2.72 0 0 Z " fill="#705055" transform="translate(128,168)"/>
<path d="M0 0 C0.99 0 1.98 0 3 0 C3 1.32 3 2.64 3 4 C3.66 4 4.32 4 5 4 C4.67 2.68 4.34 1.36 4 0 C4.99 0 5.98 0 7 0 C7.33 0.99 7.66 1.98 8 3 C8.33 2.01 8.66 1.02 9 0 C9.66 0.33 10.32 0.66 11 1 C10.01 3.31 9.02 5.62 8 8 C7.01 7.34 6.02 6.68 5 6 C4.34 6.66 3.68 7.32 3 8 C2.01 5.36 1.02 2.72 0 0 Z " fill="#38292B" transform="translate(179,110)"/>
<path d="M0 0 C1.98 0 3.96 0 6 0 C6.66 2.31 7.32 4.62 8 7 C7.01 7.33 6.02 7.66 5 8 C5 6.02 5 4.04 5 2 C4.34 2 3.68 2 3 2 C3 3.98 3 5.96 3 8 C2.34 8 1.68 8 1 8 C0.67 5.36 0.34 2.72 0 0 Z " fill="#3F2E30" transform="translate(133,244)"/>
<path d="M0 0 C1.9375 0.3125 1.9375 0.3125 4 1 C4.33 1.99 4.66 2.98 5 4 C3.35 4 1.7 4 0 4 C0 4.66 0 5.32 0 6 C1.65 5.67 3.3 5.34 5 5 C4.67 5.99 4.34 6.98 4 8 C-0.75 7.25 -0.75 7.25 -3 5 C-2.01 3.35 -1.02 1.7 0 0 Z " fill="#4E383C" transform="translate(150,190)"/>
<path d="M0 0 C1.98 0 3.96 0 6 0 C6.66 2.31 7.32 4.62 8 7 C7.01 7.33 6.02 7.66 5 8 C5 6.02 5 4.04 5 2 C4.34 2 3.68 2 3 2 C3 3.98 3 5.96 3 8 C2.34 8 1.68 8 1 8 C0.67 5.36 0.34 2.72 0 0 Z " fill="#3F2E30" transform="translate(131,128)"/>
<path d="M0 0 C1.9375 0.3125 1.9375 0.3125 4 1 C4.33 1.99 4.66 2.98 5 4 C3.35 4 1.7 4 0 4 C0 4.66 0 5.32 0 6 C1.65 5.67 3.3 5.34 5 5 C4.67 5.99 4.34 6.98 4 8 C-0.75 7.25 -0.75 7.25 -3 5 C-2.01 3.35 -1.02 1.7 0 0 Z " fill="#4E383C" transform="translate(150,110)"/>
<path d="M0 0 C2.31 0 4.62 0 7 0 C7.66 2.31 8.32 4.62 9 7 C8.01 7.33 7.02 7.66 6 8 C6 6.02 6 4.04 6 2 C5.34 2 4.68 2 4 2 C4 3.98 4 5.96 4 8 C3.01 7.67 2.02 7.34 1 7 C1.33 5.02 1.66 3.04 2 1 C1.34 0.67 0.68 0.34 0 0 Z " fill="#3D2D2F" transform="translate(172,74)"/>
<path d="M0 0 C2.31 0.33 4.62 0.66 7 1 C7 3.31 7 5.62 7 8 C6.01 8 5.02 8 4 8 C3.67 6.02 3.34 4.04 3 2 C2.67 3.98 2.34 5.96 2 8 C1.34 8 0.68 8 0 8 C0 5.36 0 2.72 0 0 Z " fill="#3C2B2E" transform="translate(97,244)"/>
<path d="M0 0 C0.99 0 1.98 0 3 0 C3 0.66 3 1.32 3 2 C3.99 2 4.98 2 6 2 C5.67 3.65 5.34 5.3 5 7 C3.35 6.67 1.7 6.34 0 6 C-0.38218767 4.34385343 -0.71395102 2.67542976 -1 1 C-0.67 0.67 -0.34 0.34 0 0 Z " fill="#8D656C" transform="translate(97,227)"/>
<path d="M0 0 C0.99 0 1.98 0 3 0 C3 0.66 3 1.32 3 2 C3.99 2 4.98 2 6 2 C5.67 3.65 5.34 5.3 5 7 C3.35 6.67 1.7 6.34 0 6 C-0.38218767 4.34385343 -0.71395102 2.67542976 -1 1 C-0.67 0.67 -0.34 0.34 0 0 Z " fill="#8D656C" transform="translate(97,209)"/>
<path d="M0 0 C2.125 0.375 2.125 0.375 4 1 C4 1.99 4 2.98 4 4 C2.68 4 1.36 4 0 4 C0 4.66 0 5.32 0 6 C1.65 5.67 3.3 5.34 5 5 C4.01 6.485 4.01 6.485 3 8 C1.35 7.67 -0.3 7.34 -2 7 C-2.125 4.625 -2.125 4.625 -2 2 C-1.34 1.34 -0.68 0.68 0 0 Z " fill="#5A4145" transform="translate(231,190)"/>
<path d="M0 0 C2.125 0.375 2.125 0.375 4 1 C4 1.99 4 2.98 4 4 C2.68 4 1.36 4 0 4 C0 4.66 0 5.32 0 6 C1.65 5.67 3.3 5.34 5 5 C4.01 6.485 4.01 6.485 3 8 C1.35 7.67 -0.3 7.34 -2 7 C-2.125 4.625 -2.125 4.625 -2 2 C-1.34 1.34 -0.68 0.68 0 0 Z " fill="#5A4145" transform="translate(200,128)"/>
<path d="M0 0 C2.475 0.495 2.475 0.495 5 1 C5.33 3.31 5.66 5.62 6 8 C4.02 8 2.04 8 0 8 C0 5.33333333 0 2.66666667 0 0 Z " fill="#4D383B" transform="translate(125,128)"/>
<path d="M0 0 C2.475 0.495 2.475 0.495 5 1 C5.33 3.31 5.66 5.62 6 8 C4.02 8 2.04 8 0 8 C0 5.33333333 0 2.66666667 0 0 Z " fill="#4D383B" transform="translate(128,74)"/>
<path d="M0 0 C2.0625 0.1875 2.0625 0.1875 4 1 C4.33 1.99 4.66 2.98 5 4 C3.35 4 1.7 4 0 4 C0.99 5.32 1.98 6.64 3 8 C1.68 7.67 0.36 7.34 -1 7 C-1.625 4.625 -1.625 4.625 -2 2 C-1.34 1.34 -0.68 0.68 0 0 Z " fill="#573F43" transform="translate(162,226)"/>
<path d="M0 0 C2.0625 0.1875 2.0625 0.1875 4 1 C4.33 1.99 4.66 2.98 5 4 C3.35 4 1.7 4 0 4 C0.99 5.32 1.98 6.64 3 8 C1.68 7.67 0.36 7.34 -1 7 C-1.625 4.625 -1.625 4.625 -2 2 C-1.34 1.34 -0.68 0.68 0 0 Z " fill="#573F43" transform="translate(121,226)"/>
<path d="M0 0 C2.0625 0.1875 2.0625 0.1875 4 1 C4.33 1.99 4.66 2.98 5 4 C3.35 4 1.7 4 0 4 C0.99 5.32 1.98 6.64 3 8 C1.68 7.67 0.36 7.34 -1 7 C-1.625 4.625 -1.625 4.625 -2 2 C-1.34 1.34 -0.68 0.68 0 0 Z " fill="#573F43" transform="translate(121,208)"/>
<path d="M0 0 C2.125 0.375 2.125 0.375 4 1 C4 1.99 4 2.98 4 4 C2.68 4 1.36 4 0 4 C0.99 5.32 1.98 6.64 3 8 C1.35 7.67 -0.3 7.34 -2 7 C-2.125 4.625 -2.125 4.625 -2 2 C-1.34 1.34 -0.68 0.68 0 0 Z " fill="#513B3E" transform="translate(177,128)"/>
<path d="M0 0 C2.0625 0.1875 2.0625 0.1875 4 1 C4.33 1.99 4.66 2.98 5 4 C3.35 4 1.7 4 0 4 C0.99 5.32 1.98 6.64 3 8 C1.68 7.67 0.36 7.34 -1 7 C-1.625 4.625 -1.625 4.625 -2 2 C-1.34 1.34 -0.68 0.68 0 0 Z " fill="#573F43" transform="translate(162,92)"/>
<path d="M0 0 C0.33 0 0.66 0 1 0 C0.67 8.25 0.34 16.5 0 25 C-0.33 25 -0.66 25 -1 25 C-1.22282257 21.95877308 -1.42868018 18.9179572 -1.625 15.875 C-1.68945312 15.0190625 -1.75390625 14.163125 -1.8203125 13.28125 C-2.12306989 8.36144244 -1.98895393 4.6307706 0 0 Z " fill="#CEC9E3" transform="translate(20,256)"/>
<path d="M0 0 C1.67542976 0.28604898 3.34385343 0.61781233 5 1 C5 1.66 5 2.32 5 3 C4.34 3 3.68 3 3 3 C3 2.34 3 1.68 3 1 C2.34 1 1.68 1 1 1 C1.33 1.99 1.66 2.98 2 4 C1.67 4.66 1.34 5.32 1 6 C2.32 5.67 3.64 5.34 5 5 C4.67 5.99 4.34 6.98 4 8 C2.35 7.67 0.7 7.34 -1 7 C-1.04254356 5.00045254 -1.04080783 2.99958364 -1 1 C-0.67 0.67 -0.34 0.34 0 0 Z " fill="#493538" transform="translate(110,190)"/>
<path d="M0 0 C1.67542976 0.28604898 3.34385343 0.61781233 5 1 C5 1.66 5 2.32 5 3 C4.34 3 3.68 3 3 3 C3 2.34 3 1.68 3 1 C2.34 1 1.68 1 1 1 C1.33 1.99 1.66 2.98 2 4 C1.67 4.66 1.34 5.32 1 6 C2.32 5.67 3.64 5.34 5 5 C4.67 5.99 4.34 6.98 4 8 C2.35 7.67 0.7 7.34 -1 7 C-1.04254356 5.00045254 -1.04080783 2.99958364 -1 1 C-0.67 0.67 -0.34 0.34 0 0 Z " fill="#493538" transform="translate(238,168)"/>
<path d="M0 0 C1.67542976 0.28604898 3.34385343 0.61781233 5 1 C5 1.66 5 2.32 5 3 C4.34 3 3.68 3 3 3 C3 2.34 3 1.68 3 1 C2.34 1 1.68 1 1 1 C1.33 1.99 1.66 2.98 2 4 C1.67 4.66 1.34 5.32 1 6 C2.32 5.67 3.64 5.34 5 5 C4.67 5.99 4.34 6.98 4 8 C2.35 7.67 0.7 7.34 -1 7 C-1.04254356 5.00045254 -1.04080783 2.99958364 -1 1 C-0.67 0.67 -0.34 0.34 0 0 Z " fill="#493538" transform="translate(110,168)"/>
<path d="M0 0 C1.67542976 0.28604898 3.34385343 0.61781233 5 1 C5 1.66 5 2.32 5 3 C4.34 3 3.68 3 3 3 C3 2.34 3 1.68 3 1 C2.34 1 1.68 1 1 1 C1.33 1.99 1.66 2.98 2 4 C1.67 4.66 1.34 5.32 1 6 C2.32 5.67 3.64 5.34 5 5 C4.67 5.99 4.34 6.98 4 8 C2.35 7.67 0.7 7.34 -1 7 C-1.04254356 5.00045254 -1.04080783 2.99958364 -1 1 C-0.67 0.67 -0.34 0.34 0 0 Z " fill="#493538" transform="translate(240,128)"/>
<path d="M0 0 C1.67542976 0.28604898 3.34385343 0.61781233 5 1 C5 1.66 5 2.32 5 3 C4.34 3 3.68 3 3 3 C3 2.34 3 1.68 3 1 C2.34 1 1.68 1 1 1 C1.33 1.99 1.66 2.98 2 4 C1.67 4.66 1.34 5.32 1 6 C2.32 5.67 3.64 5.34 5 5 C4.67 5.99 4.34 6.98 4 8 C2.35 7.67 0.7 7.34 -1 7 C-1.04254356 5.00045254 -1.04080783 2.99958364 -1 1 C-0.67 0.67 -0.34 0.34 0 0 Z " fill="#493538" transform="translate(165,128)"/>
<path d="M0 0 C1.67542976 0.28604898 3.34385343 0.61781233 5 1 C5 1.66 5 2.32 5 3 C4.34 3 3.68 3 3 3 C3 2.34 3 1.68 3 1 C2.34 1 1.68 1 1 1 C1.33 1.99 1.66 2.98 2 4 C1.67 4.66 1.34 5.32 1 6 C2.32 5.67 3.64 5.34 5 5 C4.67 5.99 4.34 6.98 4 8 C2.35 7.67 0.7 7.34 -1 7 C-1.04254356 5.00045254 -1.04080783 2.99958364 -1 1 C-0.67 0.67 -0.34 0.34 0 0 Z " fill="#493538" transform="translate(102,128)"/>
<path d="M0 0 C1.67542976 0.28604898 3.34385343 0.61781233 5 1 C5 1.66 5 2.32 5 3 C4.34 3 3.68 3 3 3 C3 2.34 3 1.68 3 1 C2.34 1 1.68 1 1 1 C1.33 1.99 1.66 2.98 2 4 C1.67 4.66 1.34 5.32 1 6 C2.32 5.67 3.64 5.34 5 5 C4.67 5.99 4.34 6.98 4 8 C2.35 7.67 0.7 7.34 -1 7 C-1.04254356 5.00045254 -1.04080783 2.99958364 -1 1 C-0.67 0.67 -0.34 0.34 0 0 Z " fill="#493538" transform="translate(110,110)"/>
<path d="M0 0 C1.67542976 0.28604898 3.34385343 0.61781233 5 1 C5 1.66 5 2.32 5 3 C4.34 3 3.68 3 3 3 C3 2.34 3 1.68 3 1 C2.34 1 1.68 1 1 1 C1.33 1.99 1.66 2.98 2 4 C1.67 4.66 1.34 5.32 1 6 C2.32 5.67 3.64 5.34 5 5 C4.67 5.99 4.34 6.98 4 8 C2.35 7.67 0.7 7.34 -1 7 C-1.04254356 5.00045254 -1.04080783 2.99958364 -1 1 C-0.67 0.67 -0.34 0.34 0 0 Z " fill="#493538" transform="translate(94,92)"/>
<path d="M0 0 C0.5625 1.9375 0.5625 1.9375 1 4 C0.67 4.33 0.34 4.66 0 5 C-2.02408755 4.90997602 -4.04544287 4.75358962 -6.0625 4.5625 C-7.71958984 4.40974609 -7.71958984 4.40974609 -9.41015625 4.25390625 C-10.26480469 4.17011719 -11.11945313 4.08632813 -12 4 C-12 3.67 -12 3.34 -12 3 C-10.82630859 2.80083984 -10.82630859 2.80083984 -9.62890625 2.59765625 C-8.61699219 2.42105469 -7.60507812 2.24445312 -6.5625 2.0625 C-5.55316406 1.88847656 -4.54382813 1.71445312 -3.50390625 1.53515625 C-1.0712562 1.25248903 -1.0712562 1.25248903 0 0 Z " fill="#E2DEF3" transform="translate(434,51)"/>
<path d="M0 0 C0.99 0 1.98 0 3 0 C3 3.63 3 7.26 3 11 C1.35 11 -0.3 11 -2 11 C-1.01 10.67 -0.02 10.34 1 10 C1 8.02 1 6.04 1 4 C0.01 3.67 -0.98 3.34 -2 3 C-1.01 3 -0.02 3 1 3 C0.67 2.01 0.34 1.02 0 0 Z " fill="#37282B" transform="translate(186,125)"/>
<path d="M0 0 C1.32 0.33 2.64 0.66 4 1 C3.01 1 2.02 1 1 1 C1 1.66 1 2.32 1 3 C1.66 3.33 2.32 3.66 3 4 C2.34 4 1.68 4 1 4 C1.33 6.31 1.66 8.62 2 11 C0.68 10.67 -0.64 10.34 -2 10 C-2.25 3.375 -2.25 3.375 0 0 Z " fill="#3C2C2F" transform="translate(219,125)"/>
<path d="M0 0 C0.99 0.33 1.98 0.66 3 1 C3 3.31 3 5.62 3 8 C1.35 7.67 -0.3 7.34 -2 7 C-2 5.35 -2 3.7 -2 2 C-1.34 2 -0.68 2 0 2 C0 1.34 0 0.68 0 0 Z " fill="#865F66" transform="translate(169,74)"/>
<path d="M0 0 C1.98 0 3.96 0 6 0 C5.79375 0.5775 5.5875 1.155 5.375 1.75 C4.91338739 4.51967567 5.57055055 5.64561267 7 8 C6.01 8 5.02 8 4 8 C4 7.34 4 6.68 4 6 C3.34 6 2.68 6 2 6 C2 6.66 2 7.32 2 8 C1.34 7.67 0.68 7.34 0 7 C0.185625 6.21625 0.37125 5.4325 0.5625 4.625 C1.25962266 2.02910225 1.25962266 2.02910225 0 0 Z " fill="#342628" transform="translate(108,128)"/>
<path d="M0 0 C1.98 0.495 1.98 0.495 4 1 C4 2.98 4 4.96 4 7 C2.35 7.33 0.7 7.66 -1 8 C-0.67 5.36 -0.34 2.72 0 0 Z " fill="#8F666D" transform="translate(133,92)"/>
<path d="M0 0 C1.98 0 3.96 0 6 0 C5.79375 0.5775 5.5875 1.155 5.375 1.75 C4.91338739 4.51967567 5.57055055 5.64561267 7 8 C6.01 8 5.02 8 4 8 C4 7.34 4 6.68 4 6 C3.34 6 2.68 6 2 6 C2 6.66 2 7.32 2 8 C1.34 7.67 0.68 7.34 0 7 C0.185625 6.21625 0.37125 5.4325 0.5625 4.625 C1.25962266 2.02910225 1.25962266 2.02910225 0 0 Z " fill="#342628" transform="translate(120,92)"/>
<path d="M0 0 C2.0625 0.4375 2.0625 0.4375 4 1 C4 2.32 4 3.64 4 5 C1.69 5 -0.62 5 -3 5 C-1.125 1.125 -1.125 1.125 0 0 Z " fill="#DAD4F0" transform="translate(335,38)"/>
<path d="M0 0 C0.625 1.875 0.625 1.875 1 4 C-1 6 -1 6 -3.625 6.125 C-4.40875 6.08375 -5.1925 6.0425 -6 6 C-6.33 5.01 -6.66 4.02 -7 3 C-4.69 2.01 -2.38 1.02 0 0 Z " fill="#E2DEF3" transform="translate(139,336)"/>
<path d="M0 0 C1.98 0 3.96 0 6 0 C6 0.99 6 1.98 6 3 C5.01 3.33 4.02 3.66 3 4 C3 5.98 3 7.96 3 10 C-0.00617269 6.99382731 0.40414684 4.17618402 0 0 Z " fill="#D8D6E0" transform="translate(34,283)"/>
<path d="M0 0 C1.98 0.495 1.98 0.495 4 1 C3.67 2.65 3.34 4.3 3 6 C1.68 5.67 0.36 5.34 -1 5 C-0.67 3.35 -0.34 1.7 0 0 Z " fill="#7C68C9" transform="translate(150,312)"/>
<path d="M0 0 C0.99 0 1.98 0 3 0 C3 0.99 3 1.98 3 3 C3.66 3 4.32 3 5 3 C5 2.01 5 1.02 5 0 C5.66 0 6.32 0 7 0 C6.40138258 2.35171131 5.73075648 4.6859378 5 7 C4.01 7.495 4.01 7.495 3 8 C2.01 5.36 1.02 2.72 0 0 Z " fill="#4A3539" transform="translate(215,226)"/>
<path d="M0 0 C0.99 0 1.98 0 3 0 C3 0.99 3 1.98 3 3 C3.66 3 4.32 3 5 3 C5 2.01 5 1.02 5 0 C5.66 0 6.32 0 7 0 C6.40138258 2.35171131 5.73075648 4.6859378 5 7 C4.01 7.495 4.01 7.495 3 8 C2.01 5.36 1.02 2.72 0 0 Z " fill="#4A3539" transform="translate(175,226)"/>
<path d="M0 0 C1.65 0.33 3.3 0.66 5 1 C5.33 1.99 5.66 2.98 6 4 C3.36 4 0.72 4 -2 4 C-1.34 2.68 -0.68 1.36 0 0 Z " fill="#E5E1F4" transform="translate(422,213)"/>
<path d="M0 0 C2.97 0.495 2.97 0.495 6 1 C5.67 2.32 5.34 3.64 5 5 C3.02 5 1.04 5 -1 5 C-0.67 3.35 -0.34 1.7 0 0 Z " fill="#65494D" transform="translate(191,134)"/>
<path d="M0 0 C0.99 0 1.98 0 3 0 C3 0.99 3 1.98 3 3 C3.66 3 4.32 3 5 3 C5 2.01 5 1.02 5 0 C5.66 0 6.32 0 7 0 C6.40138258 2.35171131 5.73075648 4.6859378 5 7 C4.01 7.495 4.01 7.495 3 8 C2.01 5.36 1.02 2.72 0 0 Z " fill="#4A3539" transform="translate(247,74)"/>
<path d="M0 0 C1.32 0 2.64 0 4 0 C3.67 0.66 3.34 1.32 3 2 C2.34 1.67 1.68 1.34 1 1 C1 1.66 1 2.32 1 3 C1.99 3.33 2.98 3.66 4 4 C4 5.32 4 6.64 4 8 C2.35 8 0.7 8 -1 8 C-0.67 7.01 -0.34 6.02 0 5 C0 4.67 0 4.34 0 4 C0 2.68 0 1.36 0 0 Z " fill="#4C373A" transform="translate(222,74)"/>
<path d="M0 0 C2.64 0 5.28 0 8 0 C8 0.99 8 1.98 8 3 C5.03 3 2.06 3 -1 3 C-0.67 2.01 -0.34 1.02 0 0 Z " fill="#E8A7B1" transform="translate(304,65)"/>
<path d="M0 0 C1.32 0 2.64 0 4 0 C4 1.98 4 3.96 4 6 C3.34 5.67 2.68 5.34 2 5 C2 5.99 2 6.98 2 8 C1.01 7.67 0.02 7.34 -1 7 C-0.67 4.69 -0.34 2.38 0 0 Z " fill="#584044" transform="translate(204,208)"/>
<path d="M0 0 C1.66611905 -0.042721 3.33382885 -0.04063832 5 0 C6 1 6 1 6.0625 3.5625 C6.041875 4.366875 6.02125 5.17125 6 6 C5.67 4.68 5.34 3.36 5 2 C4.01 2 3.02 2 2 2 C2 3.65 2 5.3 2 7 C1.34 7 0.68 7 0 7 C0 4.69 0 2.38 0 0 Z " fill="#2E2123" transform="translate(142,168)"/>
<path d="M0 0 C1.98 0 3.96 0 6 0 C6.66 2.31 7.32 4.62 8 7 C7.01 7.33 6.02 7.66 5 8 C5 6.02 5 4.04 5 2 C3.35 2 1.7 2 0 2 C0 1.34 0 0.68 0 0 Z " fill="#4D383B" transform="translate(187,226)"/>
<path d="M0 0 C1.65 0 3.3 0 5 0 C5 0.66 5 1.32 5 2 C4.34 2 3.68 2 3 2 C3.33 3.98 3.66 5.96 4 8 C2.68 7.67 1.36 7.34 0 7 C0 4.69 0 2.38 0 0 Z " fill="#433134" transform="translate(223,168)"/>
<path d="M0 0 C0.99 0 1.98 0 3 0 C4.33333333 2.66666667 5.66666667 5.33333333 7 8 C6.01 8 5.02 8 4 8 C4 7.34 4 6.68 4 6 C3.34 6 2.68 6 2 6 C2 6.66 2 7.32 2 8 C1.34 7.67 0.68 7.34 0 7 C0.2784375 6.1028125 0.2784375 6.1028125 0.5625 5.1875 C1.22093687 2.83591238 1.22093687 2.83591238 0 0 Z " fill="#312426" transform="translate(154,74)"/>
<path d="M0 0 C1.98 0 3.96 0 6 0 C5.814375 0.763125 5.62875 1.52625 5.4375 2.3125 C4.77180827 5.08967375 4.77180827 5.08967375 6 8 C5.34 8 4.68 8 4 8 C0 2.58823529 0 2.58823529 0 0 Z " fill="#39292C" transform="translate(113,146)"/>
<path d="M0 0 C1.98 0 3.96 0 6 0 C5.67 1.32 5.34 2.64 5 4 C3.35 4 1.7 4 0 4 C0 2.68 0 1.36 0 0 Z " fill="#ECE9F7" transform="translate(333,46)"/>
<path d="M0 0 C1.65 0 3.3 0 5 0 C4.67 1.32 4.34 2.64 4 4 C2.35 4 0.7 4 -1 4 C-0.67 2.68 -0.34 1.36 0 0 Z " fill="#F0EEF9" transform="translate(100,331)"/>
<path d="M0 0 C3.16130459 4.21507278 3.3367697 5.06071112 3 10 C2.01 10 1.02 10 0 10 C0 6.7 0 3.4 0 0 Z " fill="#CD939D" transform="translate(177,205)"/>
<path d="M0 0 C0.33 0 0.66 0 1 0 C0.25 6.75 0.25 6.75 -2 9 C-2.66 7.68 -3.32 6.36 -4 5 C-2.69254251 3.31295807 -1.35827971 1.64639965 0 0 Z " fill="#DAD8E5" transform="translate(348,161)"/>
<path d="M0 0 C0.33 0.66 0.66 1.32 1 2 C2.98 2 4.96 2 7 2 C6.67 2.99 6.34 3.98 6 5 C4.02 5 2.04 5 0 5 C0 3.35 0 1.7 0 0 Z " fill="#886168" transform="translate(183,152)"/>
<path d="M0 0 C2.4294516 3.6441774 2.16179575 5.71241272 2 10 C1.01 10 0.02 10 -1 10 C-1.9765625 3.9453125 -1.9765625 3.9453125 -2 2 C-1.34 1.34 -0.68 0.68 0 0 Z " fill="#39292C" transform="translate(98,126)"/>
<path d="M0 0 C1.66666667 0 3.33333333 0 5 0 C5 2 5 2 3 4.125 C2.34 4.74375 1.68 5.3625 1 6 C0.01 5.67 -0.98 5.34 -2 5 C-1.125 1.125 -1.125 1.125 0 0 Z " fill="#E8A7B1" transform="translate(161,75)"/>
<path d="M0 0 C1.98 0.495 1.98 0.495 4 1 C4 2.32 4 3.64 4 5 C2.35 4.67 0.7 4.34 -1 4 C-0.67 2.68 -0.34 1.36 0 0 Z " fill="#705AC4" transform="translate(393,27)"/>
<path d="M0 0 C2.475 0.495 2.475 0.495 5 1 C5 3.31 5 5.62 5 8 C4.01 7.67 3.02 7.34 2 7 C2.33 5.35 2.66 3.7 3 2 C2.01 1.67 1.02 1.34 0 1 C0 0.67 0 0.34 0 0 Z " fill="#463335" transform="translate(212,208)"/>
<path d="M0 0 C2.4294516 3.6441774 2.16179575 5.71241272 2 10 C1.01 10 0.02 10 -1 10 C-1.02689216 8.52093108 -1.04634621 7.04172517 -1.0625 5.5625 C-1.07410156 4.73878906 -1.08570313 3.91507813 -1.09765625 3.06640625 C-1 1 -1 1 0 0 Z " fill="#3A2A2C" transform="translate(176,188)"/>
<path d="M0 0 C2.475 0.495 2.475 0.495 5 1 C5.33 3.31 5.66 5.62 6 8 C5.01 7.67 4.02 7.34 3 7 C2.25 5.0625 2.25 5.0625 2 3 C2.33 2.34 2.66 1.68 3 1 C2.34 1 1.68 1 1 1 C0.67 1.66 0.34 2.32 0 3 C0 2.01 0 1.02 0 0 Z " fill="#3B2B2E" transform="translate(135,190)"/>
<path d="M0 0 C1.98 0.495 1.98 0.495 4 1 C3.67 2.32 3.34 3.64 3 5 C1.68 4.67 0.36 4.34 -1 4 C-0.67 2.68 -0.34 1.36 0 0 Z " fill="#140F10" transform="translate(81,191)"/>
<path d="M0 0 C1.98 0.495 1.98 0.495 4 1 C3.67 2.32 3.34 3.64 3 5 C1.68 4.67 0.36 4.34 -1 4 C-0.67 2.68 -0.34 1.36 0 0 Z " fill="#140F10" transform="translate(81,169)"/>
<path d="M0 0 C2.475 0.495 2.475 0.495 5 1 C5.33 3.31 5.66 5.62 6 8 C5.01 7.67 4.02 7.34 3 7 C2.25 5.0625 2.25 5.0625 2 3 C2.33 2.34 2.66 1.68 3 1 C2.34 1 1.68 1 1 1 C0.67 1.66 0.34 2.32 0 3 C0 2.01 0 1.02 0 0 Z " fill="#3B2B2E" transform="translate(148,146)"/>
<path d="M0 0 C2.4294516 3.6441774 2.16179575 5.71241272 2 10 C1.01 10 0.02 10 -1 10 C-1.02689216 8.52093108 -1.04634621 7.04172517 -1.0625 5.5625 C-1.07410156 4.73878906 -1.08570313 3.91507813 -1.09765625 3.06640625 C-1 1 -1 1 0 0 Z " fill="#3A2A2C" transform="translate(228,126)"/>
<path d="M0 0 C2.4294516 3.6441774 2.16179575 5.71241272 2 10 C1.01 10 0.02 10 -1 10 C-1.02689216 8.52093108 -1.04634621 7.04172517 -1.0625 5.5625 C-1.07410156 4.73878906 -1.08570313 3.91507812 -1.09765625 3.06640625 C-1 1 -1 1 0 0 Z " fill="#3A2A2C" transform="translate(176,108)"/>
<path d="M0 0 C2.475 0.495 2.475 0.495 5 1 C5.33 3.31 5.66 5.62 6 8 C5.01 7.67 4.02 7.34 3 7 C2.25 5.0625 2.25 5.0625 2 3 C2.33 2.34 2.66 1.68 3 1 C2.34 1 1.68 1 1 1 C0.67 1.66 0.34 2.32 0 3 C0 2.01 0 1.02 0 0 Z " fill="#3B2B2E" transform="translate(135,110)"/>
<path d="M0 0 C1.98 0.495 1.98 0.495 4 1 C3.67 2.32 3.34 3.64 3 5 C1.68 4.67 0.36 4.34 -1 4 C-0.67 2.68 -0.34 1.36 0 0 Z " fill="#140F10" transform="translate(81,111)"/>
<path d="M0 0 C1.32 0 2.64 0 4 0 C4 2.31 4 4.62 4 7 C3.67 6.01 3.34 5.02 3 4 C0.98491642 3.26676204 0.98491642 3.26676204 -1 3 C-0.67 2.01 -0.34 1.02 0 0 Z " fill="#5F4449" transform="translate(110,244)"/>
<path d="M0 0 C0.99 0.33 1.98 0.66 3 1 C3 2.65 3 4.3 3 6 C2.01 6 1.02 6 0 6 C-0.38218767 4.34385343 -0.71395102 2.67542976 -1 1 C-0.67 0.67 -0.34 0.34 0 0 Z " fill="#EBA8B3" transform="translate(133,227)"/>
<path d="M0 0 C0.99 0.33 1.98 0.66 3 1 C3 2.65 3 4.3 3 6 C2.01 6 1.02 6 0 6 C-0.38218767 4.34385343 -0.71395102 2.67542976 -1 1 C-0.67 0.67 -0.34 0.34 0 0 Z " fill="#EBA8B3" transform="translate(133,209)"/>
<path d="M0 0 C0.99 0 1.98 0 3 0 C3.33 1.32 3.66 2.64 4 4 C2.35 4.33 0.7 4.66 -1 5 C-0.67 3.35 -0.34 1.7 0 0 Z " fill="#F3AEBA" transform="translate(144,191)"/>
<path d="M0 0 C1.98 0.99 1.98 0.99 4 2 C4 3.65 4 5.3 4 7 C3.34 7 2.68 7 2 7 C0 5 0 5 -0.125 2.375 C-0.08375 1.59125 -0.0425 0.8075 0 0 Z " fill="#B9848D" transform="translate(111,147)"/>
<path d="M0 0 C0.99 0 1.98 0 3 0 C3.33 1.32 3.66 2.64 4 4 C2.35 4.33 0.7 4.66 -1 5 C-0.67 3.35 -0.34 1.7 0 0 Z " fill="#F3AEBA" transform="translate(144,111)"/>
<path d="M0 0 C0 0.66 0 1.32 0 2 C-3.3 2.33 -6.6 2.66 -10 3 C-3.66666667 -1.22222222 -3.66666667 -1.22222222 0 0 Z " fill="#D7D6DB" transform="translate(29,287)"/>
<path d="M0 0 C0.99 0 1.98 0 3 0 C3 2.64 3 5.28 3 8 C2.01 7.67 1.02 7.34 0 7 C0 4.69 0 2.38 0 0 Z " fill="#473336" transform="translate(129,244)"/>
<path d="M0 0 C0.99 0.33 1.98 0.66 3 1 C2.67 2.65 2.34 4.3 2 6 C1.34 6 0.68 6 0 6 C-0.38218767 4.34385343 -0.71395102 2.67542976 -1 1 C-0.67 0.67 -0.34 0.34 0 0 Z " fill="#EBA8B3" transform="translate(206,227)"/>
<path d="M0 0 C0.99 0.33 1.98 0.66 3 1 C2.67 2.65 2.34 4.3 2 6 C1.34 6 0.68 6 0 6 C-0.38218767 4.34385343 -0.71395102 2.67542976 -1 1 C-0.67 0.67 -0.34 0.34 0 0 Z " fill="#EBA8B3" transform="translate(218,169)"/>
<path d="M0 0 C0.99 0.33 1.98 0.66 3 1 C2.67 2.65 2.34 4.3 2 6 C1.34 6 0.68 6 0 6 C-0.38218767 4.34385343 -0.71395102 2.67542976 -1 1 C-0.67 0.67 -0.34 0.34 0 0 Z " fill="#EBA8B3" transform="translate(107,147)"/>
<path d="M0 0 C1.2065625 0.0309375 1.2065625 0.0309375 2.4375 0.0625 C1.7775 1.3825 1.1175 2.7025 0.4375 4.0625 C0.1075 3.4025 -0.2225 2.7425 -0.5625 2.0625 C-1.2225 3.3825 -1.8825 4.7025 -2.5625 6.0625 C-2.94468767 4.40635343 -3.27645102 2.73792976 -3.5625 1.0625 C-2.5625 0.0625 -2.5625 0.0625 0 0 Z " fill="#423033" transform="translate(194.5625,127.9375)"/>
<path d="M0 0 C0.99 0.33 1.98 0.66 3 1 C2.67 2.65 2.34 4.3 2 6 C1.34 6 0.68 6 0 6 C-0.38218767 4.34385343 -0.71395102 2.67542976 -1 1 C-0.67 0.67 -0.34 0.34 0 0 Z " fill="#EBA8B3" transform="translate(147,93)"/>
<path d="M0 0 C0.99 0.33 1.98 0.66 3 1 C2.67 2.65 2.34 4.3 2 6 C1.34 6 0.68 6 0 6 C-0.38218767 4.34385343 -0.71395102 2.67542976 -1 1 C-0.67 0.67 -0.34 0.34 0 0 Z " fill="#EBA8B3" transform="translate(238,75)"/>
<path d="M0 0 C0.99 0 1.98 0 3 0 C3 2.64 3 5.28 3 8 C2.01 7.67 1.02 7.34 0 7 C0 4.69 0 2.38 0 0 Z " fill="#473336" transform="translate(113,74)"/>
<path d="M0 0 C0.66 0.33 1.32 0.66 2 1 C2 2.65 2 4.3 2 6 C1.01 6.33 0.02 6.66 -1 7 C-1.04254356 5.00045254 -1.04080783 2.99958364 -1 1 C-0.67 0.67 -0.34 0.34 0 0 Z " fill="#D599A3" transform="translate(238,209)"/>
<path d="M0 0 C0.66 0 1.32 0 2 0 C2 0.66 2 1.32 2 2 C2.99 2 3.98 2 5 2 C4.67 2.99 4.34 3.98 4 5 C2.68 5 1.36 5 0 5 C0 3.35 0 1.7 0 0 Z " fill="#D497A1" transform="translate(192,191)"/>
<path d="M0 0 C1.32 0 2.64 0 4 0 C4.33 1.32 4.66 2.64 5 4 C3.35 4 1.7 4 0 4 C0 2.68 0 1.36 0 0 Z " fill="#7C585E" transform="translate(199,190)"/>
<path d="M0 0 C0.99 0.33 1.98 0.66 3 1 C3 3.31 3 5.62 3 8 C2.01 8 1.02 8 0 8 C0 5.36 0 2.72 0 0 Z " fill="#342628" transform="translate(174,168)"/>
<path d="M0 0 C0.99 0.33 1.98 0.66 3 1 C3 3.31 3 5.62 3 8 C2.01 8 1.02 8 0 8 C0 5.36 0 2.72 0 0 Z " fill="#342628" transform="translate(175,146)"/>
<path d="M0 0 C0.66 0 1.32 0 2 0 C2 0.66 2 1.32 2 2 C2.99 2 3.98 2 5 2 C4.67 2.99 4.34 3.98 4 5 C2.68 5 1.36 5 0 5 C0 3.35 0 1.7 0 0 Z " fill="#D497A1" transform="translate(192,111)"/>
<path d="M0 0 C1.32 0 2.64 0 4 0 C4.33 1.32 4.66 2.64 5 4 C3.35 4 1.7 4 0 4 C0 2.68 0 1.36 0 0 Z " fill="#7C585E" transform="translate(199,110)"/>
<path d="M0 0 C0.99 0.33 1.98 0.66 3 1 C3 3.31 3 5.62 3 8 C2.01 8 1.02 8 0 8 C0 5.36 0 2.72 0 0 Z " fill="#342628" transform="translate(135,74)"/>
<path d="M0 0 C0.99 0 1.98 0 3 0 C3 1.32 3 2.64 3 4 C1.35 4 -0.3 4 -2 4 C-1.34 2.68 -0.68 1.36 0 0 Z " fill="#E3DFF3" transform="translate(102,324)"/>
<path d="M0 0 C0.99 0 1.98 0 3 0 C3 1.98 3 3.96 3 6 C2.01 5.67 1.02 5.34 0 5 C0 3.35 0 1.7 0 0 Z " fill="#F2ADB9" transform="translate(220,209)"/>
<path d="M0 0 C0.99 0 1.98 0 3 0 C3 1.98 3 3.96 3 6 C2.01 5.67 1.02 5.34 0 5 C0 3.35 0 1.7 0 0 Z " fill="#F5B0BC" transform="translate(185,209)"/>
<path d="M0 0 C0.99 0 1.98 0 3 0 C3 1.98 3 3.96 3 6 C2.01 6 1.02 6 0 6 C0 4.02 0 2.04 0 0 Z " fill="#DB9DA7" transform="translate(232,209)"/>
<path d="M0 0 C1.9375 0.3125 1.9375 0.3125 4 1 C4.33 1.99 4.66 2.98 5 4 C3.35 4 1.7 4 0 4 C0 2.68 0 1.36 0 0 Z " fill="#7C595E" transform="translate(169,190)"/>
<path d="M0 0 C1.9375 0.3125 1.9375 0.3125 4 1 C4.33 1.99 4.66 2.98 5 4 C3.35 4 1.7 4 0 4 C0 2.68 0 1.36 0 0 Z " fill="#7C595E" transform="translate(150,190)"/>
<path d="M0 0 C0.66 0 1.32 0 2 0 C2 1.98 2 3.96 2 6 C1.01 6 0.02 6 -1 6 C-1.042721 4.33388095 -1.04063832 2.66617115 -1 1 C-0.67 0.67 -0.34 0.34 0 0 Z " fill="#D89BA5" transform="translate(224,191)"/>
<path d="M0 0 C0.99 0 1.98 0 3 0 C3 1.98 3 3.96 3 6 C2.01 5.67 1.02 5.34 0 5 C0 3.35 0 1.7 0 0 Z " fill="#F2ADB9" transform="translate(164,147)"/>
<path d="M0 0 C0.99 0 1.98 0 3 0 C3 1.98 3 3.96 3 6 C2.01 5.67 1.02 5.34 0 5 C0 3.35 0 1.7 0 0 Z " fill="#F2ADB9" transform="translate(156,147)"/>
<path d="M0 0 C0.99 0 1.98 0 3 0 C3 1.98 3 3.96 3 6 C2.01 5.67 1.02 5.34 0 5 C0 3.35 0 1.7 0 0 Z " fill="#F5B0BC" transform="translate(211,129)"/>
<path d="M0 0 C0.99 0 1.98 0 3 0 C3 1.98 3 3.96 3 6 C2.01 5.67 1.02 5.34 0 5 C0 3.35 0 1.7 0 0 Z " fill="#F2ADB9" transform="translate(184,129)"/>
<path d="M0 0 C1.9375 0.3125 1.9375 0.3125 4 1 C4.33 1.99 4.66 2.98 5 4 C3.35 4 1.7 4 0 4 C0 2.68 0 1.36 0 0 Z " fill="#7C595E" transform="translate(169,110)"/>
<path d="M0 0 C1.9375 0.3125 1.9375 0.3125 4 1 C4.33 1.99 4.66 2.98 5 4 C3.35 4 1.7 4 0 4 C0 2.68 0 1.36 0 0 Z " fill="#7C595E" transform="translate(150,110)"/>
<path d="M0 0 C0.66 0 1.32 0 2 0 C2 1.98 2 3.96 2 6 C1.01 6 0.02 6 -1 6 C-1.042721 4.33388095 -1.04063832 2.66617115 -1 1 C-0.67 0.67 -0.34 0.34 0 0 Z " fill="#D89BA5" transform="translate(224,111)"/>
<path d="M0 0 C0.99 0.33 1.98 0.66 3 1 C3 2.65 3 4.3 3 6 C2.01 6 1.02 6 0 6 C0 4.02 0 2.04 0 0 Z " fill="#F9B3BF" transform="translate(114,93)"/>
<path d="M0 0 C0.99 0 1.98 0 3 0 C3 1.98 3 3.96 3 6 C2.01 5.67 1.02 5.34 0 5 C0 3.35 0 1.7 0 0 Z " fill="#F5B0BC" transform="translate(261,75)"/>
<path d="M0 0 C0.99 0 1.98 0 3 0 C3 1.98 3 3.96 3 6 C2.01 5.67 1.02 5.34 0 5 C0 3.35 0 1.7 0 0 Z " fill="#F5B0BC" transform="translate(211,75)"/>
<path d="M0 0 C0.66 0 1.32 0 2 0 C2 1.98 2 3.96 2 6 C1.01 6 0.02 6 -1 6 C-1.042721 4.33388095 -1.04063832 2.66617115 -1 1 C-0.67 0.67 -0.34 0.34 0 0 Z " fill="#DFA0AA" transform="translate(172,75)"/>
<path d="M0 0 C0.66 0 1.32 0 2 0 C2 1.98 2 3.96 2 6 C1.01 6 0.02 6 -1 6 C-1.042721 4.33388095 -1.04063832 2.66617115 -1 1 C-0.67 0.67 -0.34 0.34 0 0 Z " fill="#D89BA5" transform="translate(93,75)"/>
</svg>
